<?xml version="1.0" encoding="utf-8"?>
<!-- Generator: Adobe Illustrator 27.5.0, SVG Export Plug-In . SVG Version: 6.00 Build 0)  -->
<svg version="1.1" id="Layer_1" xmlns="http://www.w3.org/2000/svg" xmlns:xlink="http://www.w3.org/1999/xlink" x="0px" y="0px"
	 viewBox="0 0 260.024 267.269" style="enable-background:new 0 0 260.024 267.269;" xml:space="preserve">
<g>
	<g>
		<path style="fill:#FFFFFF;" d="M163.053,218.74c-1.112-0.371-2.188-0.7-3.222-1.016c-5.67-1.729-7.844-2.393-8.719-6.774
			c0,0,0.006,0,0.009,0c0.329,0.023,0.657,0.013,0.983-0.032c0.539,0.006,1.078,0.015,1.617,0.024
			c2.011,0.032,4.02,0.063,6.03-0.006c0.051-0.002,0.102-0.004,0.152-0.008c4.725-0.308,9.199-0.938,13.632-1.921
			c0.218,1.346,0.342,2.683,0.433,3.921c0.174,2.385,0.119,5.032,0.062,7.833c-0.029,1.47-0.061,2.969-0.059,4.476
			c-0.302,0.063-0.602,0.121-0.885,0.176c-0.153,0.03-0.307,0.06-0.46,0.09C170.283,221.157,165.811,219.662,163.053,218.74z
			 M10.556,94.105c1.003,0.916,2.307,1.42,3.67,1.42c1.082,0,2.167-0.318,3.078-0.886c1.01-0.609,2.064-1.182,3.205-1.738
			c3.194-0.206,6.923,0.891,10.853,2.069c2.085,0.624,4.206,1.26,6.375,1.738c-5.821,6.301-11.662,14.313-9.317,23.973
			c1.26,5.205,5.062,8.313,10.172,8.313c1.38,0,2.804-0.234,4.221-0.636c-0.066,2.141,0.494,4.116,2.162,5.679
			c0.222,0.203,0.458,0.384,0.708,0.543c-2.184,7.262-2.815,15.157-1.773,22.706l0.028,0.207c0.418,3.057,1.69,12.355,8.969,12.355
			c0.791,0,1.589-0.13,2.378-0.388c1.212,3.007,3.294,5.346,6.744,6.035c0.517,0.106,1.063,0.134,1.579,0.086
			c5.729,11.662,13.514,13.534,16.983,13.748c1.445,0.091,2.723-0.015,3.924-0.296c3.818,3.82,8.664,6.729,14.969,9.021
			c2.698,0.979,5.318,2.076,8.093,3.238c3.689,1.546,7.505,3.146,11.482,4.42c0.437,0.14,0.89,0.217,1.348,0.229
			c2.543,0.07,5.294,0.782,8.029,1.608c0.024,0.286,0.048,0.583,0.07,0.892c0.174,2.387,0.12,5.035,0.061,7.841
			c-0.03,1.469-0.061,2.966-0.059,4.472c-0.306,0.063-0.612,0.123-0.9,0.179c-0.809,0.156-1.643,0.317-2.457,0.548
			c-3.703,1.049-6.748,2.162-9.571,3.5c-0.225,0.105-0.479,0.22-0.752,0.342c-3.179,1.431-8.499,3.824-9.134,9.103
			c-0.174,1.545,0.324,3.037,1.357,4.183c-1.715,2.391-2.826,5.201-2.38,8.295c0.508,3.517,3.143,5.88,6.555,5.88
			c2.795,0,5.473-1.564,7.725-3.092c2.372-1.612,5.075-3.365,7.855-4.732c-1.31,3.983-1.328,7.456-0.05,10.328
			c0.138,0.311,0.309,0.607,0.51,0.881c1.834,2.522,5.152,3.336,8.4,1.839c4.474-2.067,7.011-6.073,8.684-8.716
			c1.063-1.67,2.033-3.355,2.794-4.703c1.16-1.39,2.628-2.846,4.08-4.056c0.184,0.942,0.626,1.821,1.292,2.559
			c-1.716,2.391-2.826,5.201-2.381,8.291c0.507,3.52,3.142,5.887,6.556,5.887c2.829,0,5.62-1.661,7.723-3.1
			c2.365-1.607,5.064-3.356,7.854-4.726c-1.307,3.983-1.324,7.453-0.051,10.322c0.146,0.327,0.327,0.638,0.54,0.925
			c1.212,1.631,3.068,2.567,5.093,2.567c1.07,0,2.174-0.26,3.271-0.768c4.466-2.058,7.011-6.065,8.702-8.726
			c0.861-1.363,1.75-2.862,2.78-4.688c1.247-1.487,2.833-3.046,4.37-4.296c0.452-0.194,0.904-0.383,1.356-0.571
			c1.083-0.452,2.196-0.916,3.318-1.452c0.481-0.057,0.986-0.103,1.511-0.149c1-0.091,2.03-0.184,3.125-0.369
			c3.492-0.213,7.773-0.876,10.646-3.854c2.05-2.145,2.675-4.877,1.677-7.299c-2.136-5.208-7.116-6.87-10.091-7.862
			c-1.113-0.371-2.189-0.7-3.223-1.016c-6.421-1.96-8.359-2.552-9.003-8.725c-0.104-0.983-0.203-1.97-0.304-2.959
			c-0.304-2.993-0.614-6.061-1.019-9.127c1.212-0.487,2.026-0.806,2.436-0.95c0.396-0.084,0.783-0.218,1.155-0.403
			c6.6-3.286,12.927-7.22,18.808-11.692l0.657-0.499c1.108-0.842,2.27-1.725,3.461-2.642c3.549-2.16,6.578-4.268,9.252-6.436
			c13.24-10.72,26.735-32.186,25.231-54.095c0.201-3.563,0.207-7.498,0.016-12.019c-0.402-9.35-7.628-36.256-11.413-44.674
			c0.259-3.986,0.482-11.604-0.844-18.645c-0.446-2.357-1.74-4.162-3.54-5.114c1.391-6.408,1.326-11.963-0.155-17.094
			c-1.184-4.104-4.321-5.566-6.862-5.566c-2.27,0-7.585,0-21.876,19.994l-0.123,0.173c-0.934,1.212-1.855,2.434-2.775,3.654
			c-6.359,8.44-12.367,16.415-22.108,19.035c-8.609,2.314-17.018,3.528-26.998,4.641c-4.258,0.479-8.416,0.721-12.359,0.722
			c-7.934,0-15.03-0.974-21.102-2.893c-6.416-3.44-11.565-8.983-17.014-14.844c-5.543-5.966-11.246-12.103-18.579-16.14
			c1.134-2.92,2.082-6.851,1.123-10.566c-0.719-2.785-2.401-4.973-4.866-6.325c-1.078-0.592-2.291-0.936-3.614-1.028
			c-0.32-1.04-0.807-2.013-1.454-2.895c-2.145-2.924-5.915-4.601-10.347-4.601c-2.358,0-4.866,0.473-7.25,1.366
			c-4.553,1.704-8.914,4.957-13.331,9.942c-2.042,2.302-3.303,4.702-4.23,7.028c-0.698-0.172-1.429-0.261-2.184-0.261
			c-3.183,0-6.368,1.581-9.216,4.574c-4.154,4.368-6.509,11.883-6.143,19.611c0.171,3.618,0.933,6.89,2.214,9.65
			C20.614,67.56,11.308,79.127,8.596,88.045c-0.639,2.025-0.072,4.221,1.438,5.59L10.556,94.105z"/>
		<path style="fill:#F1F1F1;" d="M162.65,218.149c-1.113-0.371-2.189-0.699-3.222-1.015c-5.671-1.73-7.844-2.394-8.719-6.775
			c0.003,0.001,0.005,0.001,0.005,0.001c0.333,0.022,0.661,0.013,0.987-0.032c0.539,0.006,1.077,0.015,1.617,0.022
			c2.011,0.032,4.02,0.085,6.03-0.004c0.051-0.002,0.101-0.005,0.152-0.009c4.724-0.329,9.198-0.938,13.632-1.921
			c0.218,1.346,0.341,2.683,0.432,3.922c0.175,2.384,0.12,5.03,0.062,7.831c-0.03,1.472-0.062,2.969-0.059,4.476
			c-0.301,0.063-0.602,0.12-0.885,0.176c-0.152,0.03-0.306,0.059-0.459,0.089C169.88,220.567,165.406,219.071,162.65,218.149z
			 M10.152,93.516c1.003,0.916,2.307,1.42,3.669,1.42c1.083,0,2.164-0.324,3.079-0.885c1.006-0.617,2.064-1.183,3.205-1.739
			c3.193-0.207,6.923,0.891,10.853,2.068c2.084,0.625,4.206,1.26,6.375,1.738c-5.822,6.302-11.662,14.313-9.317,23.974
			c1.26,5.205,5.063,8.314,10.172,8.314c1.38,0,2.804-0.235,4.221-0.636c-0.067,2.14,0.483,4.128,2.162,5.679
			c0.22,0.204,0.458,0.383,0.708,0.542c-2.185,7.263-2.817,15.157-1.773,22.706l0.029,0.207c0.417,3.056,1.69,12.355,8.968,12.355
			c0.791,0,1.59-0.13,2.379-0.388c1.212,3.007,3.296,5.334,6.743,6.035c0.518,0.105,1.063,0.134,1.58,0.086
			c5.729,11.662,13.514,13.535,16.983,13.748c1.445,0.091,2.722-0.015,3.922-0.297c3.82,3.82,8.666,6.732,14.97,9.021
			c2.699,0.979,5.318,2.077,8.094,3.238c3.689,1.546,7.504,3.145,11.481,4.42c0.438,0.141,0.891,0.217,1.349,0.229
			c2.543,0.07,5.294,0.782,8.028,1.609c0.025,0.285,0.049,0.582,0.071,0.891c0.174,2.387,0.119,5.036,0.061,7.841
			c-0.03,1.47-0.061,2.965-0.059,4.472c-0.306,0.064-0.612,0.124-0.9,0.179c-0.809,0.156-1.644,0.318-2.458,0.548
			c-3.702,1.048-6.741,2.174-9.57,3.501c-0.225,0.104-0.479,0.219-0.753,0.341c-3.182,1.421-8.518,3.822-9.133,9.103
			c-0.181,1.544,0.323,3.037,1.357,4.182c-1.715,2.393-2.826,5.202-2.38,8.296c0.508,3.517,3.142,5.879,6.554,5.879
			c2.796,0,5.474-1.563,7.726-3.092c2.372-1.612,5.074-3.364,7.855-4.73c-1.31,3.983-1.328,7.456-0.051,10.328
			c0.139,0.311,0.31,0.607,0.51,0.882c1.834,2.521,5.153,3.335,8.399,1.838c4.476-2.067,7.012-6.073,8.685-8.715
			c1.063-1.671,2.034-3.354,2.795-4.704c1.16-1.39,2.628-2.846,4.079-4.057c0.185,0.942,0.627,1.822,1.292,2.56
			c-1.715,2.392-2.826,5.202-2.38,8.292c0.507,3.52,3.142,5.886,6.556,5.886c2.829,0,5.619-1.66,7.723-3.1
			c2.365-1.607,5.064-3.355,7.854-4.725c-1.306,3.983-1.323,7.454-0.05,10.322c0.145,0.327,0.327,0.638,0.54,0.926
			c1.211,1.63,3.068,2.566,5.093,2.566c1.069,0,2.173-0.26,3.271-0.769c4.465-2.058,7.011-6.064,8.701-8.727
			c0.862-1.363,1.751-2.861,2.781-4.688c1.246-1.487,2.833-3.045,4.37-4.295c0.451-0.195,0.904-0.384,1.356-0.572
			c1.083-0.451,2.195-0.916,3.318-1.451c0.481-0.058,0.985-0.102,1.511-0.15c0.999-0.092,2.03-0.184,3.125-0.369
			c3.491-0.213,7.779-0.869,10.645-3.854c2.056-2.14,2.676-4.876,1.678-7.299c-2.137-5.208-7.117-6.869-10.092-7.862
			c-1.112-0.371-2.188-0.698-3.223-1.015c-6.421-1.96-8.359-2.553-9.003-8.725c-0.103-0.983-0.202-1.971-0.304-2.959
			c-0.303-2.994-0.613-6.061-1.019-9.127c1.213-0.486,2.027-0.806,2.436-0.95c0.396-0.085,0.783-0.218,1.156-0.403
			c6.6-3.286,12.927-7.221,18.808-11.692l0.656-0.499c1.109-0.842,2.271-1.726,3.462-2.643c3.549-2.158,6.578-4.268,9.251-6.435
			c13.241-10.72,26.736-32.186,25.231-54.095c0.202-3.563,0.208-7.498,0.016-12.019c-0.401-9.35-7.627-36.256-11.413-44.674
			c0.26-3.986,0.482-11.605-0.843-18.646c-0.446-2.357-1.74-4.162-3.541-5.114c1.392-6.408,1.327-11.962-0.154-17.094
			c-1.184-4.104-4.321-5.566-6.862-5.566c-2.271,0-7.585,0-21.878,19.994l-0.121,0.174c-0.934,1.211-1.855,2.433-2.775,3.652
			c-6.359,8.441-12.368,16.417-22.108,19.036c-8.609,2.313-17.019,3.528-27,4.641c-4.256,0.479-8.414,0.722-12.358,0.722
			c-7.933,0-15.029-0.974-21.101-2.893c-6.416-3.441-11.566-8.983-17.015-14.843c-5.544-5.967-11.245-12.103-18.578-16.14
			c1.133-2.92,2.081-6.851,1.123-10.566c-0.72-2.785-2.401-4.972-4.866-6.324c-1.078-0.592-2.292-0.936-3.615-1.028
			c-0.32-1.04-0.806-2.012-1.454-2.895c-2.144-2.925-5.914-4.602-10.346-4.602c-2.359,0-4.866,0.474-7.25,1.365
			c-4.553,1.704-8.914,4.957-13.331,9.943c-2.043,2.302-3.304,4.702-4.23,7.028c-0.698-0.172-1.429-0.261-2.184-0.261
			c-3.183,0-6.368,1.581-9.216,4.573c-4.155,4.369-6.509,11.885-6.143,19.612c0.172,3.618,0.934,6.89,2.215,9.65
			C20.211,66.97,10.948,78.551,8.191,87.456c-0.628,2.026-0.071,4.22,1.439,5.589L10.152,93.516z"/>
		<path style="fill:#E2E2E2;" d="M162.247,217.561c-1.114-0.371-2.19-0.7-3.223-1.016c-5.671-1.73-7.844-2.393-8.718-6.774
			l0.009,0.001c0.327,0.023,0.657,0.012,0.982-0.032c0.54,0.006,1.077,0.014,1.616,0.023c2.013,0.032,4.02,0.063,6.03-0.006
			c0.053-0.002,0.103-0.005,0.153-0.008c4.72-0.377,9.198-0.939,13.633-1.921c0.218,1.347,0.34,2.683,0.432,3.921
			c0.174,2.386,0.119,5.032,0.061,7.833c-0.03,1.471-0.061,2.969-0.06,4.476c-0.3,0.063-0.601,0.122-0.884,0.177
			c-0.153,0.03-0.306,0.059-0.46,0.089C169.477,219.979,165.004,218.482,162.247,217.561z M9.748,92.926
			c1.005,0.916,2.307,1.42,3.67,1.42c1.084,0,2.164-0.324,3.079-0.886c1.005-0.616,2.064-1.181,3.205-1.738
			c3.194-0.206,6.923,0.891,10.854,2.069c2.084,0.623,4.204,1.26,6.374,1.738c-5.821,6.301-11.662,14.313-9.317,23.974
			c1.261,5.205,5.062,8.313,10.172,8.313c1.38,0,2.804-0.234,4.221-0.637c-0.066,2.142,0.482,4.13,2.161,5.681
			c0.221,0.203,0.459,0.382,0.709,0.541c-2.185,7.262-2.816,15.157-1.773,22.706l0.028,0.207c0.419,3.057,1.691,12.355,8.969,12.355
			c0.792,0,1.59-0.13,2.38-0.388c1.211,3.007,3.296,5.336,6.742,6.035c0.518,0.104,1.063,0.133,1.579,0.085
			c5.73,11.663,13.515,13.534,16.984,13.749c1.445,0.09,2.722-0.016,3.923-0.297c3.819,3.819,8.665,6.73,14.969,9.02
			c2.699,0.979,5.319,2.076,8.094,3.239c3.69,1.546,7.505,3.145,11.481,4.42c0.437,0.14,0.891,0.217,1.349,0.229
			c2.543,0.07,5.294,0.783,8.028,1.608c0.025,0.286,0.05,0.583,0.072,0.891c0.178,2.389,0.119,5.037,0.061,7.842
			c-0.029,1.47-0.061,2.966-0.059,4.472c-0.305,0.063-0.612,0.124-0.901,0.18c-0.808,0.156-1.643,0.317-2.456,0.547
			c-3.703,1.048-6.743,2.172-9.571,3.5c-0.226,0.107-0.479,0.22-0.753,0.343c-3.181,1.424-8.52,3.821-9.134,9.102
			c-0.179,1.544,0.324,3.037,1.358,4.183c-1.714,2.391-2.826,5.201-2.38,8.295c0.508,3.518,3.142,5.88,6.554,5.88
			c2.796,0,5.475-1.564,7.727-3.092c2.37-1.612,5.074-3.365,7.855-4.73c-1.312,3.983-1.328,7.456-0.052,10.328
			c0.139,0.311,0.309,0.605,0.511,0.881c1.834,2.521,5.153,3.335,8.398,1.839c4.476-2.068,7.011-6.074,8.685-8.716
			c1.064-1.671,2.033-3.354,2.794-4.704c1.161-1.389,2.628-2.845,4.08-4.056c0.184,0.942,0.626,1.82,1.292,2.559
			c-1.715,2.391-2.826,5.2-2.381,8.291c0.508,3.52,3.142,5.886,6.555,5.886c2.831,0,5.62-1.66,7.725-3.1
			c2.365-1.606,5.063-3.355,7.853-4.724c-1.306,3.983-1.323,7.453-0.049,10.322c0.146,0.326,0.325,0.638,0.539,0.924
			c1.212,1.632,3.067,2.567,5.093,2.567c1.069,0,2.173-0.26,3.273-0.767c4.465-2.058,7.01-6.064,8.701-8.727
			c0.861-1.363,1.751-2.861,2.781-4.689c1.246-1.487,2.831-3.044,4.369-4.295c0.451-0.194,0.904-0.383,1.357-0.572
			c1.082-0.451,2.194-0.915,3.318-1.452c0.479-0.057,0.984-0.101,1.511-0.149c0.999-0.091,2.028-0.184,3.125-0.368
			c3.491-0.213,7.777-0.869,10.645-3.855c2.055-2.14,2.675-4.877,1.677-7.299c-2.136-5.208-7.116-6.869-10.091-7.862
			c-1.114-0.371-2.189-0.699-3.224-1.016c-6.421-1.96-8.358-2.552-9.003-8.724c-0.102-0.983-0.202-1.971-0.303-2.96
			c-0.304-2.993-0.615-6.061-1.018-9.128c1.212-0.485,2.027-0.804,2.436-0.949c0.395-0.084,0.782-0.218,1.155-0.403
			c6.6-3.286,12.927-7.22,18.809-11.692l0.656-0.499c1.109-0.842,2.27-1.726,3.46-2.643c3.55-2.159,6.58-4.267,9.252-6.434
			c13.241-10.721,26.737-32.186,25.232-54.095c0.201-3.563,0.208-7.499,0.016-12.019c-0.402-9.35-7.628-36.256-11.414-44.675
			c0.26-3.985,0.483-11.604-0.843-18.646c-0.445-2.356-1.74-4.161-3.54-5.114c1.392-6.407,1.326-11.962-0.155-17.095
			c-1.184-4.102-4.32-5.564-6.862-5.564c-2.27,0-7.586,0-21.877,19.993l-0.122,0.174c-0.935,1.211-1.855,2.434-2.774,3.653
			c-6.361,8.44-12.368,16.415-22.109,19.035c-8.608,2.314-17.018,3.529-26.999,4.641c-4.257,0.477-8.414,0.721-12.358,0.722
			c-7.934,0-15.03-0.974-21.101-2.893c-6.417-3.44-11.566-8.982-17.015-14.844c-5.544-5.966-11.245-12.103-18.579-16.14
			c1.133-2.919,2.082-6.851,1.123-10.565c-0.72-2.785-2.401-4.973-4.866-6.325c-1.078-0.592-2.291-0.936-3.614-1.027
			c-0.321-1.04-0.807-2.013-1.454-2.896c-2.145-2.924-5.916-4.602-10.346-4.602c-2.36,0-4.866,0.473-7.252,1.366
			c-4.552,1.704-8.913,4.957-13.33,9.942c-2.043,2.302-3.303,4.702-4.23,7.029c-0.697-0.173-1.429-0.261-2.184-0.261
			c-3.183,0-6.369,1.581-9.216,4.573c-4.155,4.369-6.509,11.884-6.144,19.612c0.172,3.617,0.934,6.89,2.216,9.649
			C19.808,66.381,10.545,77.961,7.789,86.866c-0.628,2.027-0.072,4.22,1.438,5.589L9.748,92.926z"/>
		<path style="fill:#D4D4D4;" d="M161.844,216.971c-1.114-0.371-2.19-0.7-3.223-1.016c-5.671-1.73-7.844-2.392-8.719-6.774
			c0,0,0.006,0.001,0.009,0.001c0.328,0.023,0.658,0.011,0.983-0.032c0.538,0.005,1.077,0.014,1.616,0.022
			c2.012,0.032,4.02,0.063,6.03-0.006c0.052-0.002,0.101-0.004,0.152-0.008c4.726-0.328,9.199-0.938,13.633-1.921
			c0.218,1.346,0.341,2.683,0.432,3.921c0.174,2.385,0.119,5.032,0.061,7.833c-0.029,1.47-0.06,2.969-0.059,4.476
			c-0.302,0.063-0.602,0.121-0.885,0.177c-0.152,0.029-0.306,0.059-0.46,0.09C169.073,219.388,164.6,217.893,161.844,216.971z
			 M9.345,92.336c1.004,0.916,2.307,1.42,3.67,1.42c1.083,0,2.164-0.325,3.079-0.886c1.007-0.616,2.064-1.181,3.205-1.737
			c3.193-0.207,6.923,0.89,10.851,2.068c2.086,0.624,4.206,1.26,6.376,1.738c-5.821,6.301-11.662,14.313-9.317,23.973
			c1.26,5.206,5.062,8.313,10.172,8.313c1.38,0,2.804-0.234,4.221-0.636c-0.066,2.14,0.483,4.127,2.161,5.679
			c0.221,0.204,0.459,0.384,0.709,0.544c-2.184,7.261-2.815,15.156-1.773,22.705l0.028,0.207c0.418,3.057,1.691,12.355,8.969,12.355
			c0.791,0,1.59-0.13,2.379-0.388c1.211,3.006,3.295,5.337,6.743,6.035c0.518,0.105,1.063,0.134,1.579,0.086
			c5.73,11.662,13.514,13.534,16.983,13.748c1.445,0.091,2.724-0.015,3.924-0.296c3.818,3.82,8.665,6.729,14.969,9.02
			c2.698,0.979,5.319,2.076,8.094,3.237c3.69,1.547,7.504,3.146,11.481,4.421c0.437,0.14,0.892,0.218,1.348,0.23
			c2.545,0.07,5.296,0.783,8.029,1.608c0.024,0.285,0.049,0.583,0.071,0.892c0.173,2.387,0.12,5.035,0.062,7.841
			c-0.03,1.469-0.061,2.966-0.059,4.472c-0.307,0.063-0.612,0.123-0.9,0.179c-0.809,0.156-1.644,0.317-2.458,0.548
			c-3.703,1.049-6.743,2.171-9.57,3.5c-0.226,0.106-0.479,0.22-0.753,0.342c-3.178,1.431-8.518,3.822-9.133,9.103
			c-0.18,1.543,0.324,3.037,1.356,4.183c-1.714,2.391-2.824,5.201-2.379,8.295c0.508,3.518,3.142,5.88,6.554,5.88
			c2.795,0,5.474-1.563,7.725-3.092c2.372-1.613,5.076-3.365,7.856-4.731c-1.311,3.983-1.327,7.456-0.051,10.328
			c0.139,0.311,0.309,0.607,0.51,0.881c1.834,2.522,5.153,3.336,8.4,1.839c4.473-2.067,7.01-6.072,8.683-8.716
			c1.063-1.67,2.034-3.355,2.795-4.703c1.16-1.39,2.628-2.847,4.079-4.056c0.185,0.942,0.626,1.821,1.292,2.56
			c-1.715,2.391-2.826,5.201-2.38,8.291c0.507,3.521,3.141,5.887,6.556,5.887c2.829,0,5.619-1.661,7.723-3.1
			c2.365-1.607,5.063-3.356,7.854-4.726c-1.307,3.983-1.322,7.453-0.051,10.322c0.146,0.327,0.327,0.638,0.541,0.925
			c1.211,1.632,3.067,2.567,5.093,2.567c1.069,0,2.173-0.261,3.271-0.769c4.465-2.058,7.01-6.064,8.701-8.725
			c0.862-1.363,1.75-2.862,2.782-4.688c1.246-1.487,2.831-3.046,4.369-4.296c0.451-0.194,0.904-0.383,1.355-0.571
			c1.083-0.452,2.196-0.916,3.319-1.452c0.48-0.057,0.985-0.103,1.51-0.149c1-0.091,2.03-0.184,3.126-0.369
			c3.492-0.213,7.778-0.869,10.646-3.854c2.056-2.141,2.677-4.877,1.677-7.298c-2.136-5.209-7.115-6.872-10.091-7.863
			c-1.113-0.371-2.189-0.7-3.223-1.015c-6.42-1.961-8.357-2.553-9.003-8.727c-0.104-0.983-0.202-1.969-0.303-2.959
			c-0.305-2.992-0.615-6.06-1.02-9.126c1.213-0.487,2.027-0.805,2.436-0.95c0.395-0.084,0.782-0.219,1.154-0.403
			c6.6-3.286,12.928-7.219,18.809-11.692l0.658-0.499c1.108-0.842,2.268-1.725,3.459-2.642c3.551-2.16,6.579-4.268,9.253-6.436
			c13.241-10.72,26.734-32.186,25.23-54.095c0.202-3.563,0.207-7.499,0.017-12.019c-0.402-9.35-7.629-36.255-11.413-44.674
			c0.259-3.986,0.483-11.605-0.843-18.646c-0.447-2.357-1.74-4.163-3.541-5.114c1.391-6.407,1.326-11.963-0.155-17.094
			c-1.185-4.104-4.321-5.566-6.863-5.566c-2.268,0-7.585,0-21.875,19.994l-0.123,0.174c-0.936,1.212-1.855,2.433-2.775,3.652
			c-6.36,8.441-12.368,16.416-22.108,19.036c-8.61,2.315-17.018,3.528-26.999,4.641c-4.257,0.479-8.416,0.721-12.359,0.722
			c-7.932,0-15.03-0.975-21.101-2.893c-6.416-3.439-11.566-8.983-17.015-14.843c-5.543-5.967-11.245-12.104-18.578-16.141
			c1.133-2.92,2.081-6.851,1.122-10.565c-0.719-2.785-2.401-4.973-4.866-6.325c-1.078-0.592-2.291-0.935-3.612-1.028
			c-0.322-1.04-0.809-2.013-1.455-2.896c-2.145-2.924-5.915-4.602-10.347-4.602c-2.359,0-4.866,0.473-7.25,1.366
			c-4.553,1.704-8.915,4.957-13.332,9.942c-2.042,2.302-3.303,4.702-4.23,7.028c-0.698-0.172-1.428-0.262-2.183-0.262
			c-3.184,0-6.369,1.582-9.217,4.575c-4.154,4.368-6.508,11.883-6.142,19.611c0.17,3.618,0.932,6.89,2.214,9.65
			C19.404,65.79,10.143,77.372,7.385,86.275c-0.628,2.028-0.071,4.221,1.439,5.589L9.345,92.336z"/>
		<path style="fill:#C5C5C5;" d="M161.439,216.381c-1.113-0.371-2.189-0.699-3.222-1.015c-5.671-1.73-7.844-2.394-8.718-6.775
			l0.008,0.001c0.329,0.022,0.657,0.013,0.983-0.032c0.538,0.006,1.078,0.015,1.617,0.023c2.011,0.032,4.02,0.063,6.029-0.005
			c0.052-0.002,0.103-0.004,0.153-0.008c4.725-0.329,9.198-0.938,13.632-1.921c0.218,1.345,0.342,2.683,0.432,3.92
			c0.174,2.385,0.119,5.031,0.063,7.833c-0.03,1.471-0.061,2.969-0.059,4.476c-0.302,0.063-0.602,0.122-0.885,0.177
			c-0.153,0.029-0.308,0.059-0.46,0.089C168.669,218.799,164.196,217.303,161.439,216.381z M8.942,91.747
			c1.003,0.916,2.307,1.419,3.669,1.419c1.084,0,2.163-0.324,3.079-0.885c1.006-0.616,2.064-1.182,3.205-1.738
			c3.194-0.208,6.924,0.891,10.852,2.067c2.086,0.626,4.206,1.261,6.376,1.739c-5.82,6.302-11.661,14.313-9.318,23.974
			c1.261,5.205,5.063,8.314,10.173,8.314c1.38,0,2.804-0.234,4.221-0.637c-0.066,2.142,0.484,4.127,2.161,5.68
			c0.221,0.204,0.459,0.384,0.709,0.543c-2.185,7.261-2.815,15.157-1.773,22.706l0.028,0.207c0.418,3.056,1.69,12.355,8.968,12.355
			c0.792,0,1.59-0.131,2.379-0.388c1.212,3.007,3.295,5.337,6.743,6.035c0.518,0.105,1.063,0.134,1.58,0.085
			c5.729,11.663,13.514,13.535,16.983,13.749c1.445,0.091,2.723-0.016,3.923-0.298c3.819,3.821,8.665,6.731,14.969,9.023
			c2.699,0.979,5.319,2.076,8.093,3.238c3.691,1.546,7.506,3.144,11.483,4.419c0.437,0.141,0.891,0.218,1.347,0.229
			c2.544,0.071,5.295,0.783,8.03,1.608c0.024,0.287,0.048,0.583,0.071,0.892c0.172,2.387,0.119,5.035,0.062,7.839
			c-0.031,1.471-0.062,2.967-0.06,4.474c-0.306,0.063-0.612,0.123-0.9,0.179c-0.808,0.156-1.643,0.317-2.457,0.547
			c-3.704,1.049-6.743,2.175-9.571,3.501c-0.225,0.104-0.479,0.219-0.752,0.341c-3.183,1.421-8.519,3.823-9.134,9.104
			c-0.18,1.544,0.324,3.037,1.356,4.182c-1.715,2.391-2.825,5.202-2.38,8.296c0.508,3.517,3.144,5.878,6.556,5.878
			c2.795,0,5.473-1.563,7.724-3.091c2.372-1.612,5.075-3.365,7.856-4.73c-1.31,3.983-1.328,7.456-0.051,10.328
			c0.139,0.311,0.309,0.606,0.51,0.881c1.834,2.521,5.154,3.334,8.4,1.839c4.473-2.068,7.011-6.073,8.683-8.716
			c1.063-1.671,2.034-3.355,2.794-4.703c1.162-1.39,2.629-2.846,4.081-4.058c0.184,0.943,0.626,1.823,1.292,2.56
			c-1.716,2.393-2.826,5.203-2.381,8.293c0.507,3.52,3.142,5.886,6.556,5.886c2.829,0,5.62-1.66,7.723-3.1
			c2.364-1.607,5.064-3.356,7.854-4.725c-1.306,3.982-1.322,7.453-0.05,10.321c0.146,0.328,0.327,0.639,0.54,0.925
			c1.211,1.632,3.068,2.568,5.093,2.568c1.07,0,2.173-0.26,3.271-0.768c4.466-2.058,7.011-6.065,8.702-8.727
			c0.861-1.363,1.75-2.861,2.781-4.689c1.246-1.486,2.832-3.045,4.369-4.295c0.452-0.194,0.904-0.383,1.355-0.571
			c1.084-0.452,2.196-0.916,3.319-1.452c0.481-0.057,0.985-0.103,1.51-0.149c1.001-0.092,2.031-0.185,3.126-0.37
			c3.492-0.212,7.779-0.868,10.646-3.854c2.056-2.14,2.676-4.876,1.677-7.299c-2.135-5.209-7.116-6.869-10.09-7.862
			c-1.114-0.371-2.19-0.699-3.223-1.015c-6.421-1.96-8.359-2.553-9.003-8.725c-0.104-0.983-0.203-1.971-0.304-2.959
			c-0.305-2.994-0.614-6.061-1.019-9.127c1.212-0.487,2.026-0.806,2.436-0.95c0.394-0.085,0.783-0.218,1.154-0.404
			c6.6-3.285,12.929-7.22,18.809-11.691l0.657-0.5c1.108-0.842,2.271-1.725,3.461-2.642c3.549-2.159,6.579-4.268,9.252-6.435
			c13.241-10.72,26.735-32.188,25.231-54.096c0.201-3.563,0.206-7.497,0.015-12.018c-0.401-9.349-7.627-36.255-11.412-44.673
			c0.26-3.986,0.482-11.605-0.844-18.646c-0.446-2.356-1.739-4.161-3.54-5.115c1.392-6.406,1.326-11.962-0.155-17.092
			c-1.184-4.104-4.322-5.566-6.862-5.566c-2.27,0-7.586,0-21.876,19.994l-0.123,0.173c-0.935,1.212-1.855,2.434-2.776,3.653
			c-6.359,8.441-12.367,16.416-22.106,19.036c-8.611,2.313-17.019,3.527-26.999,4.64c-4.258,0.479-8.416,0.722-12.36,0.722
			c-7.933,0-15.029-0.973-21.102-2.894c-6.414-3.439-11.565-8.981-17.013-14.842c-5.543-5.967-11.246-12.103-18.578-16.14
			c1.133-2.92,2.081-6.851,1.122-10.566c-0.719-2.785-2.402-4.972-4.866-6.324c-1.079-0.594-2.291-0.937-3.613-1.028
			c-0.321-1.04-0.808-2.013-1.455-2.896c-2.145-2.925-5.915-4.601-10.347-4.601c-2.358,0-4.866,0.472-7.25,1.365
			c-4.553,1.704-8.914,4.957-13.332,9.942c-2.042,2.303-3.302,4.703-4.23,7.029c-0.697-0.173-1.428-0.261-2.183-0.261
			c-3.183,0-6.369,1.581-9.217,4.573c-4.154,4.368-6.508,11.884-6.142,19.612c0.171,3.618,0.932,6.89,2.215,9.65
			C19.001,65.2,9.739,76.783,6.983,85.687c-0.628,2.027-0.072,4.221,1.439,5.59L8.942,91.747z"/>
		<path style="fill:#B7B7B7;" d="M161.036,215.791c-1.112-0.37-2.188-0.699-3.222-1.015c-5.67-1.73-7.844-2.394-8.718-6.774
			l0.008,0.001c0.329,0.023,0.657,0.011,0.983-0.032c0.54,0.006,1.078,0.013,1.617,0.022c2.011,0.032,4.019,0.063,6.031-0.006
			c0.051-0.002,0.101-0.004,0.151-0.007c4.724-0.33,9.199-0.938,13.633-1.922c0.218,1.346,0.34,2.683,0.432,3.92
			c0.175,2.386,0.12,5.032,0.062,7.834c-0.03,1.471-0.062,2.969-0.06,4.475c-0.301,0.063-0.6,0.121-0.885,0.177
			c-0.151,0.029-0.306,0.058-0.459,0.088C168.268,218.209,163.794,216.714,161.036,215.791z M8.539,91.157
			c1.003,0.915,2.307,1.419,3.671,1.419c1.081,0,2.163-0.323,3.077-0.885c1.006-0.617,2.064-1.182,3.205-1.739
			c3.193-0.205,6.923,0.891,10.853,2.069c2.085,0.625,4.207,1.26,6.376,1.739c-5.822,6.301-11.663,14.314-9.317,23.974
			c1.26,5.204,5.063,8.313,10.172,8.313c1.379,0,2.803-0.234,4.22-0.636c-0.067,2.141,0.484,4.126,2.163,5.68
			c0.221,0.203,0.458,0.383,0.708,0.541c-2.185,7.263-2.816,15.158-1.773,22.707l0.028,0.208c0.417,3.056,1.691,12.355,8.97,12.355
			c0.79,0,1.588-0.13,2.377-0.389c1.212,3.007,3.296,5.338,6.744,6.036c0.518,0.105,1.063,0.132,1.579,0.085
			c5.728,11.663,13.514,13.534,16.984,13.749c1.444,0.091,2.723-0.016,3.923-0.298c3.818,3.821,8.664,6.732,14.969,9.021
			c2.698,0.977,5.318,2.076,8.094,3.238c3.688,1.546,7.504,3.146,11.481,4.42c0.437,0.14,0.89,0.218,1.349,0.229
			c2.542,0.071,5.293,0.783,8.028,1.609c0.025,0.285,0.048,0.583,0.07,0.892c0.175,2.388,0.12,5.036,0.061,7.84
			c-0.03,1.47-0.06,2.967-0.059,4.473c-0.306,0.064-0.612,0.123-0.9,0.18c-0.809,0.156-1.642,0.317-2.457,0.546
			c-3.702,1.05-6.742,2.175-9.571,3.501c-0.225,0.105-0.478,0.22-0.753,0.342c-3.183,1.419-8.52,3.822-9.133,9.102
			c-0.18,1.544,0.323,3.037,1.357,4.182c-1.714,2.391-2.826,5.202-2.379,8.296c0.508,3.518,3.142,5.879,6.554,5.879
			c2.795,0,5.473-1.563,7.725-3.091c2.373-1.613,5.075-3.365,7.855-4.73c-1.31,3.983-1.328,7.456-0.05,10.328
			c0.139,0.311,0.309,0.605,0.51,0.881c1.833,2.521,5.153,3.334,8.4,1.839c4.475-2.068,7.011-6.073,8.684-8.716
			c1.063-1.672,2.032-3.355,2.794-4.704c1.159-1.389,2.628-2.846,4.079-4.056c0.184,0.942,0.626,1.821,1.292,2.559
			c-1.715,2.392-2.827,5.202-2.38,8.292c0.506,3.52,3.141,5.887,6.556,5.887c2.828,0,5.619-1.661,7.722-3.1
			c2.365-1.608,5.064-3.357,7.855-4.725c-1.307,3.982-1.324,7.453-0.051,10.322c0.146,0.326,0.327,0.638,0.54,0.924
			c1.212,1.631,3.068,2.567,5.093,2.567c1.07,0,2.174-0.261,3.271-0.768c4.466-2.058,7.011-6.064,8.701-8.727
			c0.862-1.363,1.751-2.862,2.781-4.688c1.247-1.488,2.833-3.045,4.371-4.296c0.451-0.193,0.903-0.382,1.355-0.57
			c1.083-0.452,2.196-0.916,3.318-1.453c0.481-0.057,0.986-0.102,1.512-0.149c0.998-0.091,2.029-0.184,3.124-0.369
			c3.491-0.212,7.779-0.869,10.646-3.854c2.056-2.14,2.676-4.877,1.677-7.3c-2.137-5.208-7.116-6.869-10.092-7.861
			c-1.111-0.372-2.188-0.7-3.223-1.017c-6.42-1.959-8.358-2.552-9.002-8.724c-0.103-0.983-0.203-1.97-0.304-2.96
			c-0.304-2.992-0.614-6.061-1.02-9.126c1.213-0.486,2.027-0.805,2.436-0.95c0.396-0.084,0.782-0.219,1.155-0.404
			c6.6-3.285,12.927-7.22,18.808-11.691l0.657-0.501c1.108-0.841,2.27-1.724,3.461-2.641c3.549-2.16,6.578-4.268,9.252-6.436
			c13.24-10.72,26.735-32.186,25.231-54.095c0.201-3.563,0.208-7.499,0.016-12.019c-0.402-9.349-7.628-36.255-11.413-44.674
			c0.259-3.985,0.482-11.605-0.844-18.646c-0.446-2.356-1.739-4.162-3.54-5.115c1.392-6.407,1.327-11.962-0.155-17.093
			c-1.183-4.104-4.32-5.566-6.862-5.566c-2.27,0-7.584,0-21.877,19.993l-0.121,0.174c-0.936,1.211-1.856,2.434-2.776,3.652
			c-6.358,8.442-12.367,16.416-22.108,19.036c-8.609,2.314-17.018,3.528-26.999,4.64c-4.257,0.479-8.415,0.722-12.358,0.722
			c-7.934,0-15.03-0.974-21.102-2.892c-6.416-3.441-11.566-8.982-17.014-14.845c-5.544-5.965-11.246-12.102-18.579-16.14
			c1.133-2.919,2.081-6.85,1.123-10.565c-0.719-2.785-2.4-4.972-4.866-6.324c-1.077-0.593-2.292-0.936-3.614-1.027
			c-0.32-1.04-0.807-2.013-1.455-2.896c-2.143-2.926-5.914-4.603-10.346-4.603c-2.358,0-4.865,0.472-7.25,1.366
			c-4.553,1.704-8.914,4.956-13.33,9.942c-2.042,2.302-3.305,4.702-4.23,7.029c-0.699-0.173-1.43-0.262-2.185-0.262
			c-3.183,0-6.367,1.582-9.215,4.574c-4.155,4.368-6.51,11.884-6.145,19.611c0.172,3.618,0.935,6.891,2.215,9.65
			C18.598,64.611,9.337,76.193,6.579,85.097c-0.628,2.028-0.072,4.222,1.438,5.589L8.539,91.157z"/>
		<path style="fill:#A8A8A8;" d="M160.633,215.202c-1.113-0.371-2.189-0.701-3.221-1.016c-5.671-1.729-7.846-2.393-8.72-6.774
			c0,0,0.006,0.001,0.009,0.001c0.328,0.021,0.657,0.012,0.983-0.032c0.539,0.004,1.078,0.014,1.617,0.021
			c2.011,0.032,4.019,0.063,6.03-0.006c0.051-0.002,0.101-0.004,0.152-0.007c4.726-0.285,9.198-0.938,13.632-1.922
			c0.218,1.347,0.342,2.684,0.432,3.922c0.175,2.385,0.12,5.032,0.062,7.832c-0.029,1.47-0.061,2.969-0.059,4.477
			c-0.301,0.063-0.602,0.121-0.885,0.177c-0.152,0.029-0.306,0.059-0.458,0.089C167.863,217.619,163.391,216.124,160.633,215.202z
			 M8.137,90.566c1.002,0.917,2.306,1.421,3.668,1.421c1.083,0,2.163-0.326,3.079-0.887c1.005-0.615,2.064-1.18,3.204-1.737
			c3.194-0.206,6.924,0.891,10.854,2.069c2.085,0.623,4.205,1.26,6.375,1.737c-5.821,6.302-11.662,14.313-9.317,23.974
			c1.26,5.205,5.063,8.313,10.172,8.313c1.38,0,2.804-0.234,4.221-0.636c-0.067,2.141,0.482,4.128,2.162,5.679
			c0.22,0.204,0.458,0.384,0.708,0.543c-2.185,7.262-2.816,15.156-1.772,22.706l0.027,0.207c0.418,3.057,1.691,12.354,8.969,12.354
			c0.791,0,1.591-0.129,2.379-0.387c1.213,3.007,3.296,5.337,6.743,6.034c0.518,0.105,1.063,0.135,1.579,0.086
			c5.729,11.663,13.514,13.534,16.984,13.748c1.446,0.092,2.722-0.014,3.923-0.295c3.818,3.819,8.665,6.729,14.969,9.02
			c2.699,0.98,5.319,2.077,8.094,3.239c3.689,1.546,7.504,3.146,11.481,4.42c0.438,0.14,0.891,0.217,1.349,0.229
			c2.543,0.07,5.294,0.782,8.029,1.608c0.024,0.286,0.048,0.583,0.07,0.891c0.174,2.387,0.119,5.036,0.062,7.842
			c-0.03,1.469-0.061,2.965-0.058,4.472c-0.307,0.063-0.614,0.123-0.901,0.179c-0.808,0.155-1.643,0.316-2.458,0.548
			c-3.702,1.048-6.747,2.162-9.571,3.499c-0.224,0.106-0.478,0.221-0.752,0.343c-3.177,1.431-8.52,3.82-9.133,9.103
			c-0.18,1.544,0.323,3.036,1.357,4.183c-1.715,2.391-2.826,5.2-2.38,8.294c0.508,3.519,3.142,5.881,6.554,5.881
			c2.796,0,5.474-1.564,7.726-3.092c2.372-1.612,5.075-3.365,7.855-4.732c-1.31,3.982-1.328,7.455-0.051,10.327
			c0.139,0.313,0.31,0.606,0.51,0.882c1.834,2.523,5.153,3.336,8.399,1.839c4.475-2.067,7.011-6.073,8.684-8.716
			c1.063-1.67,2.034-3.355,2.795-4.703c1.16-1.39,2.628-2.846,4.08-4.056c0.184,0.941,0.627,1.821,1.292,2.56
			c-1.716,2.391-2.827,5.201-2.381,8.29c0.507,3.521,3.143,5.887,6.555,5.887c2.83,0,5.62-1.66,7.724-3.099
			c2.365-1.607,5.064-3.356,7.854-4.727c-1.306,3.984-1.323,7.454-0.05,10.323c0.145,0.326,0.327,0.637,0.54,0.925
			c1.211,1.632,3.068,2.567,5.092,2.567c1.07,0,2.175-0.26,3.272-0.77c4.465-2.057,7.012-6.064,8.701-8.725
			c0.862-1.363,1.751-2.862,2.781-4.688c1.247-1.487,2.832-3.045,4.37-4.296c0.451-0.194,0.904-0.383,1.356-0.571
			c1.082-0.452,2.195-0.916,3.318-1.453c0.48-0.057,0.985-0.102,1.511-0.149c0.999-0.091,2.03-0.184,3.125-0.368
			c3.491-0.214,7.78-0.869,10.646-3.854c2.055-2.142,2.675-4.877,1.677-7.299c-2.137-5.208-7.116-6.87-10.092-7.862
			c-1.113-0.371-2.189-0.7-3.223-1.016c-6.42-1.961-8.358-2.552-9.003-8.725c-0.103-0.983-0.202-1.97-0.303-2.959
			c-0.304-2.993-0.614-6.061-1.02-9.128c1.213-0.487,2.027-0.804,2.437-0.949c0.395-0.084,0.782-0.218,1.154-0.403
			c6.6-3.286,12.928-7.22,18.809-11.693l0.657-0.498c1.108-0.843,2.27-1.725,3.461-2.642c3.549-2.161,6.578-4.268,9.251-6.436
			c13.241-10.721,26.736-32.186,25.231-54.095c0.202-3.563,0.208-7.498,0.017-12.019c-0.402-9.35-7.629-36.255-11.414-44.674
			c0.26-3.987,0.483-11.605-0.843-18.646c-0.446-2.357-1.74-4.161-3.54-5.113c1.391-6.407,1.326-11.963-0.154-17.095
			c-1.184-4.104-4.322-5.565-6.864-5.565c-2.27,0-7.584,0-21.876,19.994l-0.122,0.173c-0.935,1.212-1.855,2.434-2.775,3.654
			c-6.36,8.44-12.367,16.414-22.108,19.035c-8.609,2.314-17.018,3.528-26.999,4.641c-4.257,0.478-8.415,0.72-12.358,0.722
			c-7.934,0-15.03-0.974-21.102-2.893c-6.416-3.44-11.566-8.983-17.014-14.844c-5.544-5.966-11.246-12.103-18.578-16.14
			c1.132-2.92,2.08-6.851,1.122-10.565c-0.72-2.785-2.401-4.974-4.866-6.326c-1.078-0.591-2.292-0.935-3.614-1.027
			c-0.32-1.04-0.807-2.013-1.455-2.896c-2.144-2.924-5.914-4.602-10.346-4.602c-2.358,0-4.866,0.474-7.251,1.366
			c-4.552,1.705-8.913,4.958-13.33,9.942c-2.043,2.302-3.304,4.703-4.23,7.028c-0.698-0.172-1.428-0.26-2.183-0.26
			c-3.183,0-6.369,1.581-9.216,4.574c-4.155,4.368-6.509,11.882-6.144,19.611c0.173,3.617,0.934,6.889,2.215,9.649
			C18.194,64.021,8.933,75.604,6.176,84.507c-0.628,2.028-0.072,4.221,1.44,5.59L8.137,90.566z"/>
		<path style="fill:#9A9A9A;" d="M160.23,214.612c-1.113-0.372-2.188-0.7-3.222-1.015c-5.67-1.73-7.845-2.393-8.719-6.776
			c0.003,0.001,0.007,0.001,0.007,0.001c0.33,0.022,0.659,0.013,0.984-0.032c0.54,0.006,1.078,0.015,1.617,0.023
			c2.012,0.031,4.02,0.063,6.03-0.006c0.052-0.002,0.102-0.004,0.152-0.008c4.725-0.329,9.2-0.938,13.633-1.921
			c0.219,1.346,0.341,2.683,0.433,3.922c0.175,2.384,0.119,5.03,0.061,7.832c-0.028,1.47-0.061,2.969-0.059,4.476
			c-0.301,0.063-0.602,0.121-0.885,0.176c-0.151,0.029-0.305,0.059-0.459,0.09C167.461,217.029,162.987,215.533,160.23,214.612z
			 M7.732,89.978c1.004,0.916,2.307,1.42,3.671,1.42c1.082,0,2.163-0.325,3.078-0.886c1.006-0.617,2.064-1.182,3.204-1.737
			c3.194-0.208,6.924,0.89,10.853,2.067c2.084,0.625,4.205,1.26,6.376,1.738c-5.822,6.302-11.663,14.313-9.318,23.974
			c1.26,5.206,5.063,8.313,10.172,8.313c1.38,0,2.804-0.234,4.221-0.635c-0.067,2.14,0.485,4.123,2.162,5.678
			c0.22,0.204,0.459,0.384,0.709,0.544c-2.185,7.262-2.817,15.156-1.774,22.705l0.028,0.207c0.418,3.056,1.691,12.355,8.969,12.355
			c0.791,0,1.59-0.13,2.379-0.388c1.211,3.007,3.296,5.337,6.744,6.035c0.518,0.105,1.063,0.134,1.578,0.085
			c5.73,11.663,13.514,13.535,16.983,13.749c1.446,0.091,2.724-0.016,3.925-0.297c3.817,3.82,8.664,6.73,14.968,9.021
			c2.699,0.979,5.319,2.076,8.095,3.238c3.688,1.546,7.503,3.145,11.48,4.421c0.437,0.139,0.891,0.216,1.348,0.229
			c2.544,0.07,5.295,0.782,8.029,1.608c0.024,0.285,0.049,0.581,0.071,0.891c0.173,2.387,0.119,5.035,0.062,7.841
			c-0.029,1.469-0.06,2.965-0.059,4.472c-0.307,0.063-0.613,0.124-0.901,0.18c-0.808,0.157-1.643,0.316-2.457,0.547
			c-3.703,1.048-6.743,2.168-9.571,3.5c-0.225,0.105-0.479,0.22-0.752,0.343c-3.178,1.43-8.521,3.82-9.134,9.102
			c-0.179,1.544,0.324,3.037,1.358,4.182c-1.714,2.392-2.826,5.202-2.38,8.296c0.509,3.517,3.142,5.879,6.554,5.879
			c2.796,0,5.474-1.563,7.726-3.092c2.371-1.612,5.076-3.364,7.855-4.73c-1.311,3.983-1.328,7.456-0.05,10.328
			c0.139,0.311,0.309,0.607,0.51,0.881c1.834,2.521,5.152,3.336,8.398,1.84c4.475-2.069,7.011-6.074,8.685-8.717
			c1.063-1.669,2.033-3.354,2.794-4.703c1.16-1.39,2.628-2.846,4.079-4.057c0.184,0.942,0.627,1.822,1.292,2.56
			c-1.715,2.393-2.826,5.202-2.379,8.292c0.506,3.52,3.14,5.886,6.555,5.886c2.829,0,5.619-1.66,7.723-3.1
			c2.366-1.608,5.063-3.355,7.854-4.725c-1.308,3.983-1.324,7.453-0.051,10.322c0.145,0.327,0.326,0.638,0.539,0.926
			c1.213,1.63,3.068,2.567,5.093,2.567c1.07,0,2.175-0.261,3.272-0.77c4.465-2.058,7.011-6.064,8.701-8.726
			c0.862-1.362,1.751-2.861,2.781-4.688c1.246-1.487,2.832-3.046,4.37-4.296c0.451-0.193,0.904-0.383,1.356-0.571
			c1.082-0.452,2.196-0.916,3.317-1.452c0.481-0.057,0.987-0.103,1.513-0.149c0.998-0.092,2.028-0.184,3.124-0.37
			c3.491-0.212,7.779-0.868,10.646-3.854c2.056-2.14,2.676-4.876,1.677-7.298c-2.137-5.209-7.115-6.87-10.092-7.862
			c-1.112-0.372-2.188-0.7-3.223-1.015c-6.421-1.961-8.358-2.554-9.003-8.726c-0.102-0.983-0.202-1.97-0.303-2.959
			c-0.304-2.994-0.615-6.061-1.019-9.127c1.213-0.487,2.027-0.806,2.436-0.949c0.395-0.086,0.782-0.219,1.155-0.403
			c6.599-3.287,12.927-7.221,18.808-11.693l0.657-0.498c1.108-0.844,2.27-1.727,3.46-2.644c3.55-2.159,6.579-4.267,9.252-6.435
			c13.241-10.72,26.735-32.186,25.232-54.096c0.202-3.561,0.209-7.497,0.018-12.018c-0.404-9.349-7.63-36.256-11.415-44.674
			c0.26-3.986,0.483-11.606-0.843-18.646c-0.445-2.356-1.739-4.161-3.539-5.113c1.39-6.407,1.326-11.962-0.156-17.094
			c-1.184-4.103-4.32-5.566-6.863-5.566c-2.27,0-7.585,0-21.876,19.994l-0.121,0.173c-0.936,1.213-1.856,2.435-2.775,3.654
			c-6.361,8.44-12.368,16.415-22.109,19.035c-8.608,2.315-17.017,3.528-26.999,4.641c-4.257,0.479-8.416,0.721-12.358,0.722
			c-7.934,0-15.031-0.974-21.101-2.894c-6.417-3.44-11.566-8.983-17.016-14.842c-5.543-5.967-11.245-12.104-18.578-16.141
			c1.133-2.92,2.081-6.85,1.122-10.566c-0.719-2.784-2.4-4.972-4.866-6.324c-1.076-0.592-2.291-0.937-3.613-1.028
			c-0.321-1.04-0.808-2.013-1.455-2.896c-2.143-2.925-5.915-4.602-10.346-4.602c-2.359,0-4.866,0.474-7.251,1.365
			c-4.553,1.704-8.913,4.957-13.33,9.942c-2.042,2.303-3.304,4.703-4.23,7.029c-0.698-0.173-1.429-0.261-2.184-0.261
			c-3.184,0-6.369,1.581-9.216,4.574c-4.155,4.368-6.509,11.883-6.143,19.611c0.172,3.618,0.934,6.89,2.215,9.65
			C17.791,63.431,8.529,75.014,5.772,83.917c-0.628,2.027-0.071,4.221,1.439,5.59L7.732,89.978z"/>
		<path style="fill:#8B8B8B;" d="M159.827,214.021c-1.113-0.371-2.189-0.699-3.223-1.015c-5.67-1.73-7.844-2.393-8.719-6.775
			l0.009,0.002c0.328,0.021,0.658,0.012,0.983-0.032c0.539,0.006,1.077,0.013,1.616,0.023c2.011,0.031,4.018,0.048,6.031-0.007
			c0.05-0.001,0.102-0.003,0.151-0.006c4.727-0.288,9.2-0.939,13.633-1.922c0.219,1.346,0.341,2.683,0.433,3.921
			c0.174,2.385,0.119,5.031,0.061,7.833c-0.028,1.47-0.06,2.969-0.059,4.476c-0.301,0.063-0.602,0.121-0.884,0.176
			c-0.152,0.03-0.307,0.059-0.461,0.09C167.058,216.439,162.584,214.944,159.827,214.021z M7.328,89.388
			c1.003,0.915,2.307,1.419,3.671,1.419c1.083,0,2.163-0.323,3.077-0.885c1.006-0.616,2.064-1.182,3.206-1.737
			c3.193-0.207,6.923,0.889,10.852,2.068c2.085,0.624,4.206,1.259,6.374,1.737c-5.82,6.302-11.661,14.315-9.316,23.975
			c1.26,5.205,5.063,8.313,10.171,8.313c1.381,0,2.804-0.234,4.222-0.635c-0.066,2.14,0.482,4.127,2.162,5.679
			c0.22,0.203,0.459,0.383,0.709,0.543c-2.185,7.262-2.816,15.156-1.774,22.704l0.028,0.209c0.418,3.056,1.69,12.355,8.97,12.355
			c0.79,0,1.589-0.13,2.378-0.389c1.211,3.008,3.296,5.338,6.744,6.036c0.518,0.105,1.063,0.133,1.578,0.085
			c5.73,11.663,13.514,13.533,16.983,13.749c1.445,0.091,2.723-0.016,3.925-0.298c3.817,3.821,8.663,6.73,14.969,9.021
			c2.697,0.978,5.318,2.077,8.093,3.238c3.69,1.546,7.504,3.146,11.481,4.421c0.437,0.139,0.892,0.216,1.349,0.229
			c2.544,0.07,5.294,0.783,8.028,1.609c0.024,0.285,0.048,0.582,0.071,0.891c0.174,2.388,0.12,5.035,0.062,7.841
			c-0.029,1.469-0.06,2.966-0.059,4.472c-0.307,0.063-0.612,0.123-0.901,0.18c-0.808,0.156-1.643,0.316-2.457,0.546
			c-3.702,1.05-6.743,2.172-9.57,3.501c-0.226,0.105-0.479,0.221-0.753,0.343c-3.179,1.429-8.519,3.821-9.133,9.102
			c-0.179,1.544,0.323,3.037,1.357,4.182c-1.715,2.392-2.826,5.202-2.38,8.296c0.508,3.517,3.142,5.879,6.554,5.879
			c2.795,0,5.474-1.563,7.726-3.092c2.372-1.612,5.075-3.363,7.854-4.73c-1.31,3.983-1.327,7.457-0.049,10.329
			c0.139,0.311,0.309,0.605,0.51,0.881c1.834,2.521,5.152,3.335,8.399,1.839c4.474-2.068,7.01-6.073,8.684-8.716
			c1.063-1.671,2.032-3.354,2.794-4.704c1.16-1.389,2.627-2.846,4.079-4.056c0.184,0.942,0.626,1.821,1.292,2.559
			c-1.715,2.392-2.826,5.202-2.379,8.292c0.507,3.52,3.14,5.887,6.554,5.887c2.83,0,5.62-1.661,7.723-3.1
			c2.367-1.608,5.064-3.356,7.856-4.725c-1.307,3.982-1.323,7.453-0.052,10.322c0.146,0.326,0.327,0.637,0.541,0.925
			c1.212,1.63,3.067,2.566,5.093,2.566c1.069,0,2.174-0.261,3.272-0.768c4.465-2.058,7.01-6.065,8.701-8.727
			c0.861-1.363,1.75-2.862,2.782-4.689c1.246-1.487,2.831-3.045,4.368-4.296c0.452-0.193,0.905-0.382,1.358-0.571
			c1.082-0.452,2.196-0.915,3.318-1.452c0.48-0.057,0.986-0.102,1.511-0.15c1-0.09,2.029-0.184,3.125-0.368
			c3.492-0.212,7.779-0.868,10.646-3.854c2.055-2.139,2.675-4.877,1.677-7.299c-2.137-5.209-7.116-6.87-10.092-7.863
			c-1.112-0.371-2.188-0.699-3.223-1.015c-6.42-1.96-8.358-2.553-9.003-8.725c-0.103-0.982-0.203-1.97-0.304-2.96
			c-0.303-2.993-0.614-6.061-1.018-9.126c1.212-0.487,2.026-0.805,2.436-0.95c0.396-0.084,0.782-0.219,1.155-0.403
			c6.6-3.286,12.927-7.22,18.807-11.691l0.659-0.5c1.107-0.843,2.268-1.725,3.459-2.642c3.55-2.161,6.579-4.269,9.253-6.436
			c13.24-10.72,26.734-32.186,25.23-54.095c0.202-3.563,0.208-7.498,0.017-12.018c-0.402-9.35-7.629-36.257-11.413-44.675
			c0.259-3.985,0.483-11.605-0.844-18.646c-0.445-2.355-1.74-4.161-3.539-5.113c1.39-6.407,1.326-11.962-0.156-17.094
			c-1.185-4.104-4.321-5.565-6.863-5.565c-2.268,0-7.584,0-21.875,19.992l-0.122,0.174c-0.937,1.213-1.857,2.435-2.776,3.653
			c-6.359,8.442-12.367,16.415-22.108,19.036c-8.609,2.314-17.017,3.528-26.999,4.641c-4.257,0.479-8.416,0.721-12.358,0.722
			c-7.934,0-15.031-0.975-21.102-2.893c-6.416-3.44-11.565-8.982-17.015-14.844c-5.543-5.967-11.246-12.102-18.578-16.141
			c1.133-2.918,2.081-6.851,1.122-10.564c-0.719-2.786-2.4-4.973-4.866-6.325c-1.077-0.592-2.291-0.936-3.612-1.028
			c-0.322-1.04-0.809-2.012-1.455-2.895c-2.144-2.925-5.916-4.603-10.348-4.603c-2.358,0-4.865,0.473-7.249,1.366
			c-4.554,1.704-8.915,4.957-13.331,9.942c-2.042,2.302-3.303,4.702-4.23,7.029c-0.698-0.173-1.43-0.261-2.185-0.261
			c-3.182,0-6.367,1.581-9.215,4.572c-4.154,4.37-6.509,11.884-6.144,19.612c0.171,3.618,0.934,6.891,2.216,9.65
			C17.388,62.842,8.126,74.424,5.368,83.327c-0.628,2.028-0.072,4.222,1.44,5.589L7.328,89.388z"/>
		<path style="fill:#7D7D7D;" d="M159.422,213.433c-1.111-0.371-2.189-0.7-3.222-1.016c-5.669-1.73-7.844-2.393-8.718-6.775
			c0,0,0.006,0.001,0.008,0.001c0.33,0.023,0.657,0.012,0.984-0.032c0.539,0.005,1.078,0.014,1.617,0.023
			c2.01,0.031,4.02,0.084,6.03-0.006c0.051-0.002,0.101-0.005,0.151-0.009c4.725-0.328,9.2-0.938,13.633-1.921
			c0.218,1.346,0.341,2.683,0.433,3.921c0.174,2.385,0.119,5.032,0.061,7.833c-0.028,1.471-0.06,2.969-0.059,4.476
			c-0.302,0.063-0.601,0.121-0.885,0.177c-0.152,0.029-0.306,0.059-0.46,0.089C166.652,215.85,162.181,214.355,159.422,213.433z
			 M6.925,88.798c1.004,0.916,2.308,1.42,3.671,1.42c1.081,0,2.162-0.325,3.078-0.887c1.004-0.615,2.063-1.18,3.204-1.737
			c3.194-0.206,6.924,0.891,10.854,2.069c2.085,0.624,4.206,1.26,6.374,1.738c-5.82,6.301-11.661,14.313-9.316,23.973
			c1.26,5.206,5.063,8.313,10.171,8.313c1.38,0,2.805-0.233,4.222-0.636c-0.068,2.141,0.481,4.128,2.161,5.679
			c0.221,0.205,0.458,0.384,0.708,0.543c-2.183,7.262-2.814,15.157-1.771,22.706l0.028,0.208c0.416,3.057,1.69,12.354,8.969,12.354
			c0.791,0,1.589-0.13,2.377-0.387c1.213,3.006,3.295,5.345,6.745,6.034c0.517,0.105,1.063,0.134,1.579,0.085
			c5.728,11.663,13.514,13.536,16.983,13.75c1.444,0.09,2.722-0.017,3.924-0.297c3.818,3.82,8.664,6.73,14.969,9.02
			c2.698,0.979,5.318,2.075,8.092,3.238c3.689,1.546,7.506,3.145,11.482,4.42c0.438,0.14,0.891,0.218,1.349,0.23
			c2.543,0.07,5.294,0.782,8.029,1.608c0.024,0.286,0.047,0.582,0.069,0.892c0.175,2.387,0.12,5.036,0.063,7.841
			c-0.03,1.469-0.061,2.966-0.06,4.472c-0.306,0.063-0.612,0.123-0.9,0.179c-0.809,0.157-1.642,0.318-2.457,0.548
			c-3.702,1.049-6.743,2.171-9.571,3.501c-0.224,0.105-0.478,0.218-0.752,0.341c-3.179,1.431-8.52,3.821-9.133,9.103
			c-0.179,1.544,0.323,3.037,1.357,4.183c-1.715,2.391-2.827,5.201-2.38,8.295c0.507,3.518,3.143,5.88,6.555,5.88
			c2.795,0,5.472-1.563,7.725-3.092c2.372-1.612,5.075-3.365,7.854-4.732c-1.309,3.983-1.328,7.456-0.049,10.329
			c0.137,0.311,0.31,0.605,0.51,0.88c1.838,2.518,5.152,3.336,8.399,1.839c4.474-2.068,7.011-6.072,8.684-8.717
			c1.063-1.669,2.033-3.353,2.794-4.702c1.159-1.39,2.627-2.846,4.08-4.056c0.183,0.942,0.625,1.821,1.292,2.56
			c-1.716,2.391-2.827,5.201-2.381,8.291c0.506,3.521,3.142,5.887,6.555,5.887c2.829,0,5.621-1.661,7.723-3.1
			c2.366-1.607,5.064-3.356,7.854-4.726c-1.307,3.983-1.323,7.452-0.051,10.323c0.146,0.326,0.327,0.637,0.541,0.924
			c1.212,1.632,3.068,2.567,5.092,2.567c1.071,0,2.175-0.26,3.271-0.768c4.466-2.058,7.011-6.064,8.702-8.726
			c0.861-1.363,1.751-2.862,2.78-4.688c1.248-1.487,2.833-3.045,4.37-4.296c0.453-0.194,0.905-0.383,1.357-0.571
			c1.082-0.45,2.196-0.916,3.317-1.451c0.482-0.057,0.987-0.104,1.512-0.15c0.998-0.091,2.029-0.183,3.124-0.369
			c3.492-0.213,7.78-0.868,10.647-3.854c2.055-2.14,2.674-4.877,1.677-7.299c-2.137-5.208-7.116-6.87-10.092-7.862
			c-1.112-0.371-2.189-0.7-3.223-1.016c-6.42-1.96-8.358-2.552-9.003-8.725c-0.104-0.983-0.203-1.97-0.303-2.959
			c-0.304-2.993-0.614-6.061-1.02-9.127c1.213-0.486,2.026-0.805,2.437-0.95c0.395-0.084,0.782-0.218,1.155-0.403
			c6.599-3.286,12.927-7.22,18.807-11.692l0.658-0.499c1.107-0.841,2.268-1.725,3.461-2.642c3.548-2.159,6.578-4.268,9.252-6.435
			c13.239-10.721,26.734-32.186,25.231-54.096c0.201-3.563,0.207-7.498,0.016-12.019c-0.403-9.35-7.629-36.255-11.413-44.674
			c0.259-3.986,0.482-11.604-0.845-18.644c-0.445-2.358-1.74-4.163-3.539-5.115c1.391-6.407,1.325-11.963-0.155-17.094
			c-1.184-4.104-4.321-5.565-6.862-5.565c-2.27,0-7.585,0-21.876,19.993l-0.124,0.175c-0.934,1.21-1.855,2.433-2.774,3.652
			c-6.359,8.441-12.367,16.416-22.109,19.035c-8.608,2.314-17.017,3.528-26.997,4.641c-4.258,0.478-8.416,0.722-12.359,0.722
			c-7.934,0-15.03-0.974-21.102-2.893c-6.417-3.44-11.566-8.983-17.014-14.844c-5.543-5.966-11.247-12.102-18.579-16.14
			c1.134-2.919,2.081-6.851,1.122-10.566c-0.718-2.785-2.4-4.973-4.865-6.325c-1.078-0.592-2.292-0.936-3.614-1.027
			c-0.321-1.041-0.807-2.014-1.455-2.896c-2.144-2.924-5.915-4.602-10.346-4.602c-2.358,0-4.866,0.473-7.25,1.366
			c-4.554,1.704-8.915,4.957-13.332,9.942c-2.042,2.302-3.303,4.702-4.23,7.028c-0.698-0.173-1.429-0.261-2.184-0.261
			c-3.183,0-6.367,1.581-9.216,4.574c-4.153,4.368-6.508,11.884-6.143,19.612c0.171,3.617,0.933,6.889,2.214,9.649
			C16.984,62.252,7.725,73.834,4.966,82.737c-0.629,2.029-0.073,4.221,1.438,5.59L6.925,88.798z"/>
		<path style="fill:#6E6E6E;" d="M159.02,212.844c-1.113-0.372-2.19-0.701-3.222-1.017c-5.67-1.73-7.844-2.393-8.719-6.774
			c0.002,0.001,0.006,0.001,0.006,0.001c0.332,0.022,0.66,0.012,0.985-0.032c0.54,0.005,1.079,0.014,1.618,0.023
			c2.011,0.032,4.02,0.084,6.03-0.005c0.051-0.002,0.101-0.005,0.152-0.008c4.726-0.286,9.198-0.938,13.632-1.922
			c0.218,1.347,0.341,2.684,0.432,3.922c0.174,2.385,0.12,5.031,0.061,7.832c-0.029,1.471-0.061,2.969-0.059,4.477
			c-0.301,0.063-0.602,0.121-0.885,0.176c-0.153,0.029-0.306,0.059-0.459,0.089C166.25,215.261,161.777,213.765,159.02,212.844z
			 M6.523,88.208c1.003,0.916,2.307,1.421,3.669,1.421c1.083,0,2.164-0.325,3.079-0.886c1.006-0.617,2.064-1.183,3.204-1.738
			c3.194-0.207,6.924,0.89,10.853,2.067c2.085,0.625,4.206,1.26,6.375,1.738c-5.821,6.303-11.662,14.314-9.317,23.975
			c1.26,5.205,5.063,8.313,10.172,8.313c1.38,0,2.804-0.235,4.221-0.636c-0.067,2.14,0.482,4.128,2.162,5.679
			c0.22,0.204,0.458,0.384,0.708,0.543c-2.186,7.262-2.816,15.156-1.773,22.706l0.028,0.207c0.418,3.055,1.691,12.354,8.969,12.354
			c0.791,0,1.59-0.129,2.379-0.388c1.212,3.008,3.297,5.333,6.744,6.035c0.516,0.105,1.063,0.134,1.579,0.086
			c5.729,11.663,13.514,13.534,16.983,13.748c1.445,0.092,2.722-0.015,3.923-0.296c3.818,3.819,8.665,6.73,14.969,9.02
			c2.699,0.979,5.319,2.077,8.094,3.238c3.689,1.547,7.504,3.146,11.481,4.42c0.438,0.141,0.89,0.217,1.349,0.23
			c2.542,0.07,5.293,0.783,8.028,1.609c0.025,0.285,0.049,0.582,0.071,0.891c0.179,2.387,0.119,5.036,0.062,7.841
			c-0.03,1.47-0.061,2.965-0.059,4.473c-0.306,0.063-0.613,0.123-0.901,0.178c-0.808,0.156-1.642,0.318-2.457,0.549
			c-3.702,1.048-6.744,2.168-9.57,3.5c-0.225,0.107-0.479,0.219-0.753,0.341c-3.183,1.422-8.521,3.821-9.134,9.104
			c-0.18,1.543,0.323,3.036,1.358,4.181c-1.715,2.393-2.827,5.202-2.38,8.296c0.508,3.518,3.142,5.88,6.554,5.88
			c2.796,0,5.474-1.563,7.726-3.092c2.372-1.613,5.075-3.364,7.855-4.73c-1.311,3.982-1.328,7.455-0.05,10.327
			c0.138,0.312,0.308,0.606,0.509,0.882c1.834,2.521,5.153,3.336,8.399,1.838c4.475-2.067,7.011-6.073,8.684-8.715
			c1.063-1.671,2.034-3.354,2.795-4.704c1.16-1.389,2.628-2.846,4.08-4.056c0.183,0.942,0.626,1.822,1.292,2.56
			c-1.716,2.391-2.827,5.202-2.382,8.291c0.508,3.52,3.143,5.886,6.557,5.886c2.829,0,5.62-1.659,7.723-3.099
			c2.365-1.607,5.064-3.356,7.853-4.726c-1.305,3.984-1.323,7.454-0.049,10.323c0.146,0.326,0.326,0.638,0.539,0.925
			c1.208,1.633,3.069,2.566,5.093,2.566c1.071,0,2.175-0.26,3.272-0.769c4.465-2.057,7.011-6.064,8.701-8.726
			c0.862-1.364,1.751-2.862,2.781-4.688c1.247-1.488,2.832-3.046,4.37-4.296c0.451-0.195,0.904-0.383,1.356-0.571
			c1.083-0.452,2.194-0.916,3.318-1.452c0.481-0.058,0.986-0.102,1.511-0.15c0.999-0.091,2.03-0.184,3.125-0.369
			c3.491-0.213,7.78-0.867,10.646-3.854c2.056-2.141,2.675-4.876,1.677-7.298c-2.137-5.209-7.116-6.871-10.092-7.862
			c-1.113-0.373-2.188-0.7-3.223-1.016c-6.42-1.961-8.358-2.553-9.003-8.726c-0.103-0.982-0.203-1.971-0.303-2.959
			c-0.304-2.993-0.615-6.06-1.02-9.127c1.212-0.486,2.027-0.805,2.436-0.95c0.396-0.083,0.782-0.218,1.155-0.403
			c6.6-3.285,12.927-7.22,18.808-11.692l0.657-0.499c1.108-0.843,2.27-1.725,3.461-2.642c3.548-2.16,6.578-4.268,9.252-6.436
			c13.239-10.72,26.735-32.186,25.23-54.095c0.202-3.563,0.208-7.498,0.017-12.019c-0.402-9.35-7.628-36.255-11.415-44.673
			c0.261-3.987,0.484-11.606-0.843-18.647c-0.445-2.357-1.739-4.161-3.539-5.113c1.391-6.407,1.326-11.962-0.155-17.094
			c-1.184-4.103-4.321-5.566-6.863-5.566c-2.271,0-7.584,0-21.876,19.995l-0.122,0.172c-0.934,1.213-1.855,2.434-2.775,3.654
			c-6.36,8.441-12.367,16.415-22.108,19.036c-8.609,2.313-17.018,3.528-26.999,4.64c-4.257,0.479-8.415,0.721-12.358,0.723
			c-7.934,0-15.03-0.975-21.102-2.894c-6.416-3.44-11.566-8.982-17.014-14.843c-5.544-5.966-11.246-12.103-18.579-16.14
			c1.133-2.921,2.081-6.852,1.123-10.566c-0.72-2.785-2.401-4.973-4.866-6.324c-1.078-0.593-2.292-0.937-3.614-1.028
			c-0.321-1.041-0.807-2.013-1.455-2.895c-2.145-2.925-5.915-4.603-10.346-4.603c-2.358,0-4.866,0.474-7.251,1.365
			c-4.553,1.705-8.913,4.957-13.33,9.943c-2.043,2.303-3.304,4.703-4.23,7.028c-0.698-0.172-1.429-0.261-2.185-0.261
			c-3.182,0-6.367,1.582-9.215,4.573c-4.155,4.369-6.51,11.884-6.145,19.612c0.173,3.618,0.935,6.89,2.216,9.65
			C16.581,61.662,7.319,73.245,4.563,82.148c-0.628,2.026-0.072,4.221,1.438,5.589L6.523,88.208z"/>
		<path style="fill:#606060;" d="M158.616,212.253c-1.113-0.371-2.189-0.7-3.222-1.016c-5.671-1.73-7.845-2.393-8.719-6.774
			l0.009,0.001c0.328,0.022,0.657,0.013,0.983-0.032c0.539,0.006,1.077,0.014,1.616,0.023c2.012,0.032,4.02,0.063,6.03-0.006
			c0.052-0.002,0.102-0.003,0.153-0.007c4.725-0.309,9.198-0.939,13.632-1.922c0.218,1.347,0.341,2.684,0.432,3.921
			c0.175,2.386,0.119,5.032,0.062,7.833c-0.029,1.471-0.061,2.969-0.059,4.476c-0.301,0.064-0.602,0.122-0.885,0.177
			c-0.152,0.029-0.306,0.059-0.459,0.089C165.847,214.671,161.374,213.175,158.616,212.253z M6.118,87.618
			c1.004,0.916,2.307,1.42,3.67,1.42c1.083,0,2.168-0.317,3.079-0.886c1.01-0.608,2.064-1.181,3.204-1.737
			c3.194-0.207,6.924,0.89,10.854,2.068c2.085,0.624,4.205,1.26,6.375,1.738c-5.821,6.301-11.662,14.313-9.317,23.974
			c1.26,5.205,5.062,8.313,10.172,8.313c1.38,0,2.804-0.233,4.221-0.635c-0.067,2.141,0.493,4.115,2.161,5.679
			c0.222,0.202,0.459,0.384,0.709,0.543c-2.185,7.262-2.816,15.157-1.774,22.705l0.028,0.208c0.418,3.056,1.692,12.355,8.969,12.355
			c0.791,0,1.59-0.13,2.379-0.388c1.212,3.007,3.294,5.346,6.743,6.035c0.517,0.105,1.063,0.134,1.579,0.085
			c5.729,11.663,13.514,13.534,16.983,13.749c1.446,0.091,2.723-0.016,3.924-0.297c3.818,3.82,8.665,6.73,14.969,9.021
			c2.699,0.979,5.319,2.077,8.094,3.239c3.689,1.546,7.504,3.145,11.481,4.42c0.437,0.139,0.891,0.217,1.348,0.229
			c2.544,0.069,5.295,0.782,8.029,1.608c0.024,0.286,0.049,0.582,0.071,0.891c0.173,2.388,0.119,5.036,0.062,7.841
			c-0.03,1.47-0.061,2.966-0.059,4.472c-0.306,0.063-0.613,0.124-0.901,0.18c-0.808,0.156-1.643,0.317-2.457,0.547
			c-3.703,1.049-6.747,2.163-9.571,3.501c-0.225,0.104-0.479,0.22-0.752,0.342c-3.178,1.43-8.499,3.824-9.134,9.102
			c-0.173,1.546,0.324,3.037,1.357,4.183c-1.714,2.391-2.825,5.201-2.379,8.295c0.508,3.518,3.142,5.88,6.554,5.88
			c2.796,0,5.474-1.563,7.726-3.092c2.371-1.612,5.075-3.364,7.855-4.73c-1.311,3.983-1.328,7.456-0.051,10.328
			c0.139,0.311,0.31,0.607,0.51,0.881c1.834,2.521,5.153,3.335,8.4,1.839c4.475-2.068,7.011-6.073,8.684-8.716
			c1.063-1.67,2.034-3.355,2.795-4.703c1.16-1.39,2.627-2.846,4.079-4.057c0.185,0.942,0.627,1.821,1.293,2.559
			c-1.716,2.391-2.827,5.201-2.381,8.291c0.507,3.521,3.141,5.887,6.555,5.887c2.83,0,5.62-1.66,7.724-3.1
			c2.365-1.607,5.064-3.356,7.854-4.725c-1.307,3.983-1.323,7.453-0.05,10.322c0.145,0.327,0.326,0.638,0.54,0.925
			c1.211,1.631,3.067,2.566,5.092,2.566c1.07,0,2.174-0.259,3.272-0.768c4.465-2.058,7.011-6.064,8.701-8.726
			c0.862-1.363,1.751-2.861,2.781-4.689c1.246-1.486,2.832-3.045,4.37-4.296c0.451-0.193,0.904-0.382,1.356-0.57
			c1.082-0.452,2.195-0.916,3.318-1.452c0.48-0.058,0.985-0.102,1.511-0.15c0.999-0.091,2.029-0.184,3.125-0.369
			c3.491-0.212,7.772-0.875,10.646-3.854c2.05-2.145,2.675-4.877,1.676-7.299c-2.136-5.208-7.115-6.869-10.091-7.862
			c-1.113-0.371-2.189-0.7-3.223-1.016c-6.421-1.96-8.358-2.552-9.003-8.724c-0.104-0.983-0.202-1.971-0.303-2.96
			c-0.305-2.993-0.615-6.061-1.02-9.127c1.213-0.486,2.027-0.805,2.437-0.949c0.395-0.085,0.782-0.219,1.154-0.404
			c6.6-3.286,12.928-7.22,18.809-11.691l0.657-0.5c1.108-0.842,2.27-1.725,3.46-2.642c3.55-2.16,6.579-4.268,9.252-6.435
			c13.241-10.721,26.736-32.186,25.231-54.096c0.202-3.563,0.208-7.497,0.017-12.018c-0.403-9.35-7.629-36.256-11.414-44.674
			c0.26-3.986,0.483-11.605-0.843-18.646c-0.446-2.356-1.74-4.161-3.54-5.114c1.391-6.407,1.326-11.962-0.155-17.094
			c-1.185-4.103-4.321-5.565-6.863-5.565c-2.27,0-7.585,0-21.876,19.993l-0.122,0.174c-0.935,1.212-1.855,2.434-2.775,3.653
			c-6.36,8.441-12.367,16.415-22.108,19.035c-8.609,2.314-17.018,3.529-26.999,4.641c-4.257,0.478-8.415,0.722-12.359,0.723
			c-7.933,0-15.03-0.975-21.101-2.894c-6.416-3.44-11.566-8.982-17.014-14.844c-5.544-5.966-11.246-12.102-18.579-16.14
			c1.133-2.919,2.081-6.851,1.122-10.566c-0.719-2.785-2.401-4.973-4.865-6.325c-1.078-0.592-2.292-0.935-3.614-1.027
			c-0.321-1.04-0.807-2.013-1.455-2.895c-2.144-2.925-5.915-4.603-10.346-4.603c-2.359,0-4.866,0.473-7.251,1.366
			c-4.552,1.704-8.913,4.957-13.33,9.942c-2.043,2.302-3.304,4.702-4.23,7.029c-0.698-0.173-1.429-0.261-2.184-0.261
			c-3.184,0-6.369,1.581-9.216,4.573c-4.155,4.369-6.509,11.884-6.144,19.612c0.172,3.617,0.934,6.89,2.215,9.649
			c-10.323,5.151-19.63,16.72-22.342,25.637c-0.639,2.025-0.072,4.222,1.438,5.59L6.118,87.618z"/>
	</g>
	<path style="fill:#FFFFFF;" d="M6.118,87.618c1.004,0.916,2.307,1.42,3.67,1.42c1.083,0,2.168-0.317,3.079-0.886
		c1.01-0.608,2.064-1.181,3.204-1.737c3.194-0.207,6.924,0.89,10.854,2.068c2.085,0.624,4.205,1.26,6.375,1.738
		c-5.821,6.301-11.662,14.313-9.317,23.974c1.26,5.205,5.062,8.313,10.172,8.313c1.38,0,2.804-0.233,4.221-0.635
		c-0.067,2.141,0.493,4.115,2.161,5.679c0.222,0.202,0.459,0.384,0.709,0.543c-2.185,7.262-2.816,15.157-1.774,22.705l0.028,0.208
		c0.418,3.056,1.692,12.355,8.969,12.355c0.791,0,1.59-0.13,2.379-0.388c1.212,3.007,3.294,5.346,6.743,6.035
		c0.517,0.105,1.063,0.134,1.579,0.085c5.729,11.663,13.514,13.534,16.983,13.749c1.446,0.091,2.723-0.016,3.924-0.297
		c3.818,3.82,8.665,6.73,14.969,9.021c2.699,0.979,5.319,2.077,8.094,3.239c3.689,1.546,7.504,3.145,11.481,4.42
		c0.437,0.139,0.891,0.217,1.348,0.229c2.544,0.069,5.295,0.782,8.029,1.608c0.024,0.286,0.049,0.582,0.071,0.891
		c0.173,2.388,0.119,5.036,0.062,7.841c-0.03,1.47-0.061,2.966-0.059,4.472c-0.306,0.063-0.613,0.124-0.901,0.18
		c-0.808,0.156-1.643,0.317-2.457,0.547c-3.703,1.049-6.747,2.163-9.571,3.501c-0.225,0.104-0.479,0.22-0.752,0.342
		c-3.178,1.43-8.499,3.824-9.134,9.102c-0.173,1.546,0.324,3.037,1.357,4.183c-1.714,2.391-2.825,5.201-2.379,8.295
		c0.508,3.518,3.142,5.88,6.554,5.88c2.796,0,5.474-1.563,7.726-3.092c2.371-1.612,5.075-3.364,7.855-4.73
		c-1.311,3.983-1.328,7.456-0.051,10.328c0.139,0.311,0.31,0.607,0.51,0.881c1.834,2.521,5.153,3.335,8.4,1.839
		c4.475-2.068,7.011-6.073,8.684-8.716c1.063-1.67,2.034-3.355,2.795-4.703c1.16-1.39,2.627-2.846,4.079-4.057
		c0.185,0.942,0.627,1.821,1.293,2.559c-1.716,2.391-2.827,5.201-2.381,8.291c0.507,3.521,3.141,5.887,6.555,5.887
		c2.83,0,5.62-1.66,7.724-3.1c2.365-1.607,5.064-3.356,7.854-4.725c-1.307,3.983-1.323,7.453-0.05,10.322
		c0.145,0.327,0.326,0.638,0.54,0.925c1.211,1.631,3.067,2.566,5.092,2.566c1.07,0,2.174-0.259,3.272-0.768
		c4.465-2.058,7.011-6.064,8.701-8.726c0.862-1.363,1.751-2.861,2.781-4.689c1.246-1.486,2.832-3.045,4.37-4.296
		c0.451-0.193,0.904-0.382,1.356-0.57c1.082-0.452,2.195-0.916,3.318-1.452c0.48-0.058,0.985-0.102,1.511-0.15
		c0.999-0.091,2.029-0.184,3.125-0.369c3.491-0.212,7.772-0.875,10.646-3.854c2.05-2.145,2.675-4.877,1.676-7.299
		c-2.136-5.208-7.115-6.869-10.091-7.862c-1.113-0.371-2.189-0.7-3.223-1.016c-6.421-1.96-8.358-2.552-9.003-8.724
		c-0.104-0.983-0.202-1.971-0.303-2.96c-0.305-2.993-0.615-6.061-1.02-9.127c1.213-0.486,2.027-0.805,2.437-0.949
		c0.395-0.085,0.782-0.219,1.154-0.404c6.6-3.286,12.928-7.22,18.809-11.691l0.657-0.5c1.108-0.842,2.27-1.725,3.46-2.642
		c3.55-2.16,6.579-4.268,9.252-6.435c13.241-10.721,26.736-32.186,25.231-54.096c0.202-3.563,0.208-7.497,0.017-12.018
		c-0.403-9.35-7.629-36.256-11.414-44.674c0.26-3.986,0.483-11.605-0.843-18.646c-0.446-2.356-1.74-4.161-3.54-5.114
		c1.391-6.407,1.326-11.962-0.155-17.094c-1.185-4.103-4.321-5.565-6.863-5.565c-2.27,0-7.585,0-21.876,19.993l-0.122,0.174
		c-0.935,1.212-1.855,2.434-2.775,3.653c-6.36,8.441-12.367,16.415-22.108,19.035c-8.609,2.314-17.018,3.529-26.999,4.641
		c-4.257,0.478-8.415,0.722-12.359,0.723c-7.933,0-15.03-0.975-21.101-2.894c-6.416-3.44-11.566-8.982-17.014-14.844
		c-5.544-5.966-11.246-12.102-18.579-16.14c1.133-2.919,2.081-6.851,1.122-10.566c-0.719-2.785-2.401-4.973-4.865-6.325
		c-1.078-0.592-2.292-0.935-3.614-1.027c-0.321-1.04-0.807-2.013-1.455-2.895c-2.144-2.925-5.915-4.603-10.346-4.603
		c-2.359,0-4.866,0.473-7.251,1.366c-4.552,1.704-8.913,4.957-13.33,9.942c-2.043,2.302-3.304,4.702-4.23,7.029
		c-0.698-0.173-1.429-0.261-2.184-0.261c-3.184,0-6.369,1.581-9.216,4.573c-4.155,4.369-6.509,11.884-6.144,19.612
		c0.172,3.617,0.934,6.89,2.215,9.649c-10.323,5.151-19.63,16.72-22.342,25.637c-0.639,2.025-0.072,4.222,1.438,5.59L6.118,87.618z
		 M158.616,212.253c-1.113-0.371-2.189-0.7-3.222-1.016c-5.671-1.73-7.845-2.393-8.719-6.774l0.009,0.001
		c0.328,0.022,0.657,0.013,0.983-0.032c0.539,0.006,1.077,0.014,1.616,0.023c2.012,0.032,4.02,0.063,6.03-0.006
		c0.052-0.002,0.102-0.003,0.153-0.007c4.725-0.309,9.198-0.939,13.632-1.922c0.218,1.347,0.341,2.684,0.432,3.921
		c0.175,2.386,0.119,5.032,0.062,7.833c-0.029,1.471-0.061,2.969-0.059,4.476c-0.301,0.064-0.602,0.122-0.885,0.177
		c-0.152,0.029-0.306,0.059-0.459,0.089C165.847,214.671,161.374,213.175,158.616,212.253z"/>
	<g>
		<path style="fill:#5E2C00;" d="M164.222,221.953c-1.229-2.988-4.268-4.139-7.141-5.099c-8.234-2.747-14.392-3.066-15.513-13.834
			c-0.54-5.129-0.997-10.351-1.818-15.452c3.366-3.186,5.285-8.131,7.027-13.208c-1.102,0.635-2.223,1.243-3.354,1.825
			c-0.737,1.982-1.469,3.709-2.263,4.915c-0.637,0.983-1.311,1.806-2.007,2.51c-0.236-1.675-0.634-3.416-2.046-4.216
			c-0.33-0.186-0.798,0.422-0.538,0.692c0.833,0.875,1.217,2.588,1.372,4.607c-3.189,2.474-6.834,2.585-10.583,1.537
			c-0.88-0.952-1.919-1.697-3.154-2.135c0.193,0.067,0.399-0.276,0.272-0.417c-0.087-0.098-0.173-0.198-0.256-0.299
			c-0.307,0.078-0.612,0.162-0.917,0.233c0.003,0.014-0.007,0.032-0.007,0.032c0.059,0.446,0.153,0.812,0.249,1.178
			c-0.585-0.261-1.167-0.563-1.748-0.853c-0.496,0.113-0.992,0.232-1.486,0.338c-1.627,0.352-3.265,0.678-4.912,0.972
			c3.561,2.215,7.101,4.408,11.066,5.347c1.643,3.424,2.161,7.205,2.441,10.977c0.359,4.963-0.173,10.662,0.092,16.023
			c-2.005,1.299-4.96,1.468-6.964,2.033c-3.03,0.857-5.979,1.872-8.828,3.223c-2.171,1.02-6.788,2.753-7.13,5.594
			c-0.028,0.254,0.124,0.413,0.31,0.544c1.527,1.073,3.761,1.069,5.994,0.618c-3.27,2.172-7.899,6.24-7.346,10.083
			c0.521,3.611,5.084,0.604,6.753-0.53c3.535-2.402,7.399-4.828,11.392-6.37c0.743-0.286,1.55-0.532,2.371-0.776
			c0.181-0.121,0.37-0.248,0.567-0.374c0.657-0.085,1.306-0.166,1.861-0.261c2.602-0.455,2.64,0.869,2.091,2.381
			c-0.095,0.145-0.185,0.272-0.254,0.373c-0.649,0.979-1.358,2.231-1.975,3.599c-0.204,0.566-0.415,1.126-0.609,1.699
			c-0.038,0.035-0.076,0.067-0.112,0.106c-0.887,2.511-1.289,5.193-0.369,7.26c0.453,0.622,1.212,0.856,2.442,0.29
			c3.016-1.395,4.893-4.178,6.627-6.916c1.011-1.59,1.949-3.213,2.869-4.851c1.759-2.175,3.964-4.259,5.865-5.736
			c1.933-0.853,3.895-1.58,5.76-2.529c1.827-0.284,3.688-0.306,5.504-0.644c3.086-0.169,6.039-0.656,7.71-2.384
			C164.058,223.508,164.542,222.739,164.222,221.953z"/>
		<path style="fill:#F6BB49;" d="M161.758,222.308c-0.642,2.379-4.803,1.597-6.53,1.678c-1.854,0.077-3.642,0.442-5.349,0.997
			c-1.986,0.586-3.902,1.497-5.784,2.883c-0.251,0.185-0.463,0.411-0.696,0.616c-1.731,1.366-3.28,2.982-4.556,4.832
			c-0.789,1.138-7.479,13.825-9.962,9.582c-0.006-0.013-0.009-0.022-0.014-0.028c0.026-0.066,0.046-0.123,0.043-0.173
			c-0.212-2.783,0.845-4.855,2.117-7.241c0.438-0.825,1.036-1.854,1.335-2.891c0.079-0.202,0.151-0.4,0.234-0.599
			c0.121-0.292,0.241-0.628,0.36-0.955c0.166-0.549,0.278-1.1,0.325-1.633c-4.2-1.092-9.482,0.599-13.094,2.413
			c-3.67,1.844-6.763,4.757-10.496,6.382c-0.542,0.234-1.325-0.025-1.28-0.741c0.22-3.755,4.455-6.115,7.359-7.861
			c1.894-1.139,3.845-2.128,5.836-3.03c-3.33-1.333-8.633,3.078-12.252,1.703c-0.705-0.272-0.833-1.122-0.205-1.561
			c3.799-2.659,8.285-3.835,12.844-4.824c0.374-0.095,0.744-0.211,1.116-0.299c0.693-0.17,1.377-0.325,2.054-0.484
			c3.209-1.012,5.797-2.426,7.387-4.843c0.198-4.597,0.039-9.221-0.29-13.802c-0.213-2.952-0.678-7.469-2.105-11.339
			c0.347,0.011,0.689,0.02,1.043,0c2.741-0.123,4.959-0.9,6.81-2.129c-0.083,2.946-0.342,5.826-0.284,7.381
			c0.121,2.986,0.098,6.169,0.491,9.211c0.619,1.786,1.382,3.5,2.362,5.066c2.008,3.223,4.55,5.374,7.568,7.043
			c3.258,0.563,6.512,1.099,9.722,1.903C158.855,219.807,162.215,220.63,161.758,222.308z"/>
		<path style="fill:#F6BB49;" d="M132.482,206.105c2.134,0.588,4.304,1.04,6.505,1.378c-0.271-0.634-0.544-1.27-0.772-1.932
			c-0.394-3.042-0.37-6.225-0.491-9.211c-0.058-1.555,0.201-4.435,0.284-7.381c-1.851,1.229-4.068,2.006-6.81,2.129
			c-0.354,0.02-0.696,0.011-1.043,0c1.428,3.87,1.893,8.387,2.105,11.339C132.348,203.654,132.425,204.876,132.482,206.105z"/>
		<path style="fill:#5E2C00;" d="M209.684,226.44c-1.23-2.998-4.266-4.144-7.139-5.102c-8.238-2.747-14.392-3.066-15.515-13.834
			c-0.537-5.125-0.995-10.348-1.815-15.456c3.362-3.183,5.284-8.127,7.024-13.2c-1.102,0.631-2.218,1.239-3.353,1.821
			c-0.737,1.983-1.47,3.71-2.259,4.92c-0.642,0.979-1.316,1.798-2.012,2.506c-0.236-1.671-0.63-3.413-2.043-4.213
			c-0.332-0.189-0.802,0.418-0.542,0.688c0.834,0.878,1.219,2.592,1.378,4.607c-3.19,2.479-6.836,2.585-10.588,1.535
			c-0.88-0.952-1.919-1.698-3.146-2.13c0.188,0.065,0.392-0.28,0.265-0.423c-0.085-0.098-0.168-0.195-0.256-0.293
			c-0.307,0.074-0.607,0.157-0.918,0.234c0,0.01-0.008,0.029-0.005,0.04c0.061,0.436,0.155,0.802,0.247,1.166
			c-0.582-0.26-1.165-0.565-1.743-0.852c-0.499,0.113-0.996,0.232-1.489,0.338c-1.625,0.348-3.265,0.673-4.912,0.972
			c3.561,2.215,7.1,4.406,11.067,5.346c1.641,3.429,2.161,7.206,2.439,10.978c0.361,4.965-0.174,10.662,0.093,16.023
			c-2.005,1.295-4.957,1.463-6.963,2.033c-3.026,0.857-5.982,1.872-8.828,3.221c-2.176,1.024-6.79,2.751-7.127,5.592
			c-0.033,0.258,0.115,0.413,0.306,0.548c1.529,1.072,3.762,1.063,5.995,0.617c-3.271,2.176-7.901,6.243-7.346,10.083
			c0.52,3.616,5.082,0.608,6.751-0.533c3.534-2.402,7.4-4.822,11.393-6.366c0.744-0.286,1.551-0.537,2.373-0.78
			c0.177-0.117,0.368-0.245,0.564-0.372c0.662-0.084,1.311-0.162,1.861-0.26c2.602-0.454,2.638,0.869,2.091,2.384
			c-0.098,0.143-0.185,0.272-0.25,0.374c-0.649,0.976-1.359,2.228-1.976,3.594c-0.21,0.564-0.416,1.132-0.613,1.7
			c-0.037,0.034-0.071,0.067-0.113,0.107c-0.883,2.511-1.285,5.192-0.367,7.26c0.46,0.619,1.213,0.855,2.441,0.286
			c3.018-1.391,4.895-4.178,6.632-6.912c1.007-1.594,1.946-3.213,2.865-4.851c1.764-2.173,3.965-4.257,5.866-5.736
			c1.932-0.852,3.896-1.584,5.761-2.529c1.829-0.284,3.682-0.31,5.507-0.645c3.081-0.169,6.036-0.652,7.703-2.38
			C209.521,227.99,210.006,227.224,209.684,226.44z"/>
		<path style="fill:#F6BB49;" d="M207.222,226.792c-0.643,2.376-4.802,1.599-6.532,1.677c-1.854,0.084-3.641,0.439-5.351,1.006
			c-1.982,0.578-3.9,1.492-5.782,2.877c-0.254,0.185-0.461,0.413-0.695,0.61c-1.73,1.37-3.278,2.985-4.556,4.835
			c-0.79,1.139-7.477,13.825-9.962,9.583c-0.004-0.011-0.01-0.021-0.013-0.029c0.023-0.061,0.045-0.118,0.041-0.17
			c-0.211-2.789,0.845-4.854,2.117-7.243c0.439-0.825,1.037-1.855,1.338-2.898c0.077-0.196,0.15-0.394,0.232-0.596
			c0.123-0.29,0.243-0.624,0.361-0.955c0.164-0.55,0.273-1.096,0.328-1.63c-4.204-1.089-9.485,0.599-13.099,2.413
			c-3.67,1.843-6.759,4.753-10.498,6.383c-0.539,0.234-1.321-0.03-1.278-0.738c0.219-3.762,4.455-6.119,7.356-7.865
			c1.895-1.138,3.853-2.127,5.84-3.027c-3.33-1.333-8.633,3.076-12.249,1.697c-0.711-0.27-0.836-1.119-0.208-1.558
			c3.795-2.659,8.283-3.836,12.843-4.822c0.374-0.098,0.744-0.211,1.116-0.301c0.695-0.167,1.38-0.323,2.054-0.482
			c3.209-1.015,5.802-2.428,7.389-4.848c0.197-4.594,0.038-9.218-0.291-13.8c-0.214-2.945-0.68-7.472-2.104-11.334
			c0.344,0.003,0.689,0.013,1.045,0c2.738-0.128,4.961-0.904,6.808-2.133c-0.088,2.946,1.587,20.094,2.565,21.658
			c2.009,3.225,4.552,5.374,7.566,7.043c3.261,0.564,6.52,1.099,9.725,1.898C204.318,224.291,207.678,225.109,207.222,226.792z"/>
		<path style="fill:#F6BB49;" d="M184.325,204.495c-0.511-4.757-0.895-9.607-0.852-11.051c-1.847,1.229-4.069,2.005-6.808,2.133
			c-0.355,0.013-0.701,0.003-1.045,0c1.32,3.579,1.812,7.706,2.049,10.639C179.941,205.757,182.157,205.179,184.325,204.495z"/>
		<path style="fill:#5E2C00;" d="M246.702,106.385c-0.396-9.211-8.432-38.529-11.501-43.927c0.468-5.717,0.42-12.883-0.676-18.7
			c-0.681-3.596-4.511-1.353-5.685,0.407c2.652-7.44,4.143-15.081,2.095-22.172c-2.673-9.265-19.949,15.691-20.362,16.221
			c-7.775,10.073-14.582,20.943-27.464,24.409c-9.2,2.473-18.271,3.724-27.716,4.776c-11.342,1.274-24.433,1.223-35.889-2.503
			c-15.563-8.099-23.793-26.683-39.852-33.019c-0.152-0.082-0.318-0.156-0.472-0.235c0.13-0.12,0.248-0.243,0.318-0.357
			c2.288-3.618,5.218-11.757,0.223-14.498c-1.659-0.911-4.152-0.313-6.102,0.553c2.383-7.559-5.232-10.157-12.531-7.423
			c-4.499,1.684-8.274,5.089-11.402,8.619c-3.346,3.771-4.074,7.966-5.594,12.227c-1.665-4.88-6.072-5.047-10.15-0.762
			c-5.988,6.298-6.864,22.035-0.123,27.901c-0.104,0.198-0.205,0.4-0.316,0.589l-0.013,0.004c0.213-0.403-0.374-0.387-0.572-0.121
			l-0.074,0.104c-0.04,0.046-0.063,0.114-0.078,0.185C22.681,61.428,11.582,73.815,8.784,83.017
			c-0.049,0.156-0.066,0.413,0.074,0.54c0.175,0.159,0.354,0.317,0.53,0.48c0.282,0.258,0.676,0.147,0.974-0.038
			c1.445-0.871,2.903-1.633,4.381-2.324c9.651-1.266,19.988,6.749,29.707,3.849c-6.452,7.403-18.464,16.365-15.755,27.53
			c2.107,8.701,12.792,3.235,18.004-1.438c-1.271,3.356-4.928,10.447-2.897,12.35c0.117,0.107,0.299,0.118,0.442,0.049
			c2.221-1.103,3.472-2.471,5.21-4.299c0.432-0.455,0.743-0.807,1.004-1.111c-0.24,0.377-0.509,0.836-0.816,1.437
			c-0.78,1.548-1.574,3.564-2.227,5.16c-3.235,7.817-4.292,16.587-3.14,24.934c0.317,2.289,1.207,9.737,5.258,8.16
			c2.295-0.894,3.733-3.248,4.658-5.892c-0.13,5.239,0.618,11.104,4.356,11.852c0.466,0.094,1.024-0.383,1.22-0.761
			c0.546-1.07,0.897-2.172,1.13-3.293c2.424,7.916,7.6,17.311,15.553,17.802c2.23,0.137,3.778-0.407,4.868-1.357
			c3.991,5.09,9.246,8.132,15.382,10.362c6.545,2.374,12.782,5.477,19.401,7.599c4.303,0.117,8.659,1.62,12.665,2.859
			c0.627,0.194,1.25,0.37,1.874,0.552c3.494,0.624,6.967,1.116,10.431,1.424c1.986-0.067,3.959,0.046,5.945,0.183
			c0.076-0.025,0.153-0.048,0.252-0.048c2.633,0.024,5.257,0.112,7.884,0.024c4.675-0.305,9.395-0.968,14.223-2.122
			c2.155-0.515,4.278-1.119,6.386-1.774c5.195-2.067,16.02-6.654,16.2-6.489c6.332-3.153,12.372-6.906,18.034-11.211
			c1.36-1.034,2.811-2.134,4.305-3.287c3.165-1.915,6.193-3.965,8.948-6.198c13.656-11.058,24.838-31.581,23.423-50.293
			C246.915,114.187,246.861,110.153,246.702,106.385z"/>
		<path style="fill:#F05336;" d="M31.68,46.157c-0.169-2.933,0.137-5.827,0.915-8.681c0.101-0.439,0.226-0.865,0.377-1.274
			c0.366-1.535,0.948-2.959,1.859-4.13c1.304-1.658,4.01-3.43,6.19-2.281c1.838,0.968,2.41,2.824,3.15,4.604
			c0.278-0.28,0.484-0.617,0.51-0.875c0.693-6.354,3.23-11.233,7.757-15.724c2.081-1.899,4.408-3.419,6.982-4.56
			c3.67-1.792,13.518-3.96,10.644,6.402c-0.339,0.299-0.649,0.625-0.949,0.963c-0.149,0.426-0.297,0.845-0.42,1.274
			c3.352-2.591,8.718-5.134,10.513-0.432c1.272,3.327-0.743,8.369-3.932,8.344c-0.022,0.035-0.053,0.068-0.078,0.104
			c-8.445-2.703-18.312,1.244-25.365,5.598c-3.855,2.384-6.905,5.742-9.654,9.293c-1.96,2.529-3.059,5.404-4.168,8.227
			c-0.449,0.959-0.858,1.944-1.229,2.945c-0.159,0.362-0.327,0.717-0.499,1.067C33.059,53.431,32.085,50.222,31.68,46.157z"/>
		<path style="fill:#F05336;" d="M48.144,28.669c2.715-4.729,7.28-10.997,13.006-12.243c4.768-1.037,7.01,1.119,7.864,4.475
			c0.039-0.101,0.065-0.201,0.102-0.299c0.3-0.338,0.61-0.664,0.949-0.963c2.874-10.362-6.974-8.194-10.644-6.402
			c-2.574,1.141-4.901,2.66-6.982,4.56c-4.526,4.49-7.063,9.37-7.757,15.724c-0.025,0.258-0.232,0.595-0.51,0.875
			c-0.74-1.779-1.313-3.636-3.15-4.604c-2.181-1.149-4.887,0.623-6.19,2.281c-0.911,1.171-1.493,2.595-1.859,4.13
			c-0.151,0.409-0.276,0.835-0.377,1.274c-0.778,2.854-1.084,5.748-0.915,8.681c0.007,0.066,0.017,0.118,0.026,0.179
			c0.063-6.095,1.815-11.811,6.906-11.822c2.49-0.002,4.296,2.611,5.521,5.086C44.856,35.757,46.22,32.017,48.144,28.669z"/>
		<path style="fill:#F05336;" d="M79.208,21.443c-1.719-4.494-6.688-2.367-10.051,0.087c0.012,0.068,0.017,0.149,0.025,0.219
			c2.133-1.59,4.537-2.352,6.568-0.599c2.142,1.84,2.192,4.946,1.502,7.932C79.212,27.589,80.187,24.013,79.208,21.443z"/>
		<path style="fill:#F05336;" d="M59.711,72.138c2.573,4.517,5.269,6.746,5.557,12.509c-0.098,2.624-0.581,5.156-1.462,7.611
			l-0.371,0.198c-0.683,2.729-2.104,5.226-5.06,5.9c-2.767,0.638-3.268-3.085-3.475-5.579c-0.302,0.127-0.634,0.407-0.704,0.537
			c-1.492,2.882-2.379,5.985-3.604,8.993c0.52-6.831-1.184-11.162-3.977-17.617c0.264-0.127,0.533-0.224,0.801-0.369
			c2.236-1.252,3.297-9.548,1.951-13.731c-0.252-1.304-0.848-2.634-1.529-3.696c-2.621-6.4-6.743-8.848-11.358-8.77
			c1.137-2.901,1.896-5.846,3.19-8.706c0.676-1.484,1.548-2.938,2.313-4.418c0.406-0.549,0.785-1.111,1.213-1.651
			c2.863-3.593,6.616-6.308,10.732-8.285c7.146-1.804,14.596,0.508,19.639,6.185c3.623,4.067,4.647,8.847,4.383,14.138
			c-0.487,9.745-8.719,14.124-17.163,15.169C60.124,70.635,59.334,71.475,59.711,72.138z"/>
		<path style="fill:#F05336;" d="M76.012,44.845c1.046,4.712,0.047,9.718-2.536,13.845c-3.363,5.358-12.175,11.309-19.188,9.734
			c1.844,2.854,3.793,5.684,4.339,9.007c0.59,3.59,0.904,8.594-1.624,11.611c-1.583,1.892-4.392,3.901-6.801,2.234
			c-1.077-0.746-1.618-1.933-2.136-3.122c1.895,4.711,2.948,8.617,2.525,14.153c1.226-3.008,2.112-6.111,3.604-8.993
			c0.07-0.13,0.402-0.41,0.704-0.537c0.208,2.494,0.709,6.217,3.475,5.579c2.956-0.675,4.377-3.172,5.06-5.9l0.371-0.198
			c0.881-2.455,1.364-4.987,1.462-7.611c-0.288-5.763-2.983-7.992-5.557-12.509c-0.377-0.663,0.413-1.503,1.074-1.583
			c8.444-1.045,16.676-5.424,17.163-15.169C78.138,51.582,77.645,48.047,76.012,44.845z"/>
		<path style="fill:#FDE04B;" d="M13.794,80.445c-0.16,0.095-0.286,0.156-0.429,0.234c-0.479,0.173-0.947,0.373-1.392,0.623
			c-2.251,0.645,0.523-3.227,1.583-5.152c2.951-5.353,7.393-10.232,12.456-13.605c9.16-6.099,16.307-1.319,21.112,5.912
			c1.301,8.333-11.39,5.907-16.945,6.74C24.892,75.991,18.404,77.743,13.794,80.445z"/>
		<path style="fill:#FDE04B;" d="M45.025,65.664c-4.695-5.534-11.1-8.39-19.012-3.119c-5.063,3.373-9.505,8.253-12.456,13.605
			c-0.387,0.701-0.998,1.657-1.514,2.562C19.839,69.734,36.21,59.866,45.025,65.664z"/>
		<path style="fill:#F6BB49;" d="M30.839,82.98c-3.503-0.994-8.001-2.643-12.206-2.923c3.524-1.307,7.166-2.26,11.003-3.04
			c5.452-1.112,11.09-0.182,16.543-1.339c1.137-0.241,1.922-0.705,2.445-1.312c-0.23,2.758-0.903,5.606-1.048,6.37
			C46.413,87.033,34.704,84.077,30.839,82.98z"/>
		<path style="fill:#F05336;" d="M38.509,114.647c-7.911,2.205-8.311-5.345-7.023-9.858c2.142-7.508,9.875-12.928,13.894-19.564
			c0.098-0.036,0.201-0.055,0.303-0.099c0.568,2.914,1.724,5.51,2.517,8.374c1.252,4.504,0.526,9.524-0.478,14.141
			C45.449,110.724,42.382,113.063,38.509,114.647z"/>
		<path style="fill:#F05336;" d="M45.938,86.171c-0.052-0.033-0.109-0.046-0.162-0.095c-0.269-0.233-0.458-0.396-0.603-0.529
			c-0.017,0.026-0.029,0.046-0.047,0.068c3.142,7.105-0.179,18.373-5.581,23.684c-1.783,1.753-4.896,4.532-7.598,2.673
			c-0.25-0.172-0.464-0.364-0.683-0.557c0.742,2.641,2.812,4.468,7.245,3.232c3.873-1.584,6.94-3.924,9.212-7.007
			c1.004-4.616,1.729-9.637,0.478-14.141C47.503,90.99,46.551,88.669,45.938,86.171z"/>
		<path style="fill:#FFFDED;" d="M235.879,144.739c1.24-1.05,2.33-2.201,3.315-3.416c-1.886,5.137-4.498,9.933-7.729,14.279
			c-3.024,3.682-5.925,8.019-9.549,11.283c-0.615,0.491-18.557,13.744-22.999,16.43c-5.381,3.255-10.983,6.221-17.08,7.677
			c-5.597,2.106-11.369,3.808-17.333,5.065c-5.014,1.051-10.041,1.446-15.058,1.376c-0.127-0.114-4.93-0.335-7.263-0.511
			c0.044,0.032,0.09,0.063,0.138,0.098c-0.795-0.085-1.589-0.212-2.388-0.31c-0.524-0.056-1.044-0.106-1.579-0.179
			c-0.29-0.035-0.571-0.094-0.863-0.133c-0.836-0.123-1.679-0.254-2.516-0.399c-1.439-0.234-2.875-0.501-4.311-0.791
			c-0.189-0.039-0.379-0.071-0.568-0.11c-3.992-0.822-7.959-1.801-11.871-2.92c-12.323-3.524-24.439-7.869-34.899-15.454
			c-0.436-0.313-0.583-0.904-0.182-1.32c-0.218-0.055-0.429-0.117-0.645-0.171c1.214-2.209,1.207-5.438,0.785-8.63
			c-0.137-1.021-0.26-1.883-0.372-2.618c0.729,2.201,2.037,4.535,4.055,3.993c4.398-1.185,4.303-17.291,4.279-19.951
			c-0.006-0.868-1.283-0.036-1.343,0.523c-0.309,2.846-0.678,5.667-1.131,8.496c0.104-0.657-1.743,11.663-3.843,7.823
			c-1.214-2.215-1.395-5.042-2.995-7.033c-0.287-0.357-1.005,0.247-0.966,0.595c0.494,4.448,3.482,20.839-6.673,16.127
			c-7.713-3.58-11.707-13.675-12.911-21.447c-0.149-0.977-1.881,0.251-1.887,0.947c-0.006,0.674-0.415,9.539-2.243,5.4
			c-1.407-3.19-1.878-6.224-2.061-9.741c-0.016-0.296-0.042-0.533-0.081-0.751c0.324-1.558,0.521-3.06,0.66-4.257
			c0.055-0.493-0.79-0.09-0.849,0.235c-0.131,0.718-0.292,1.781-0.426,3.04c-1.136,0.104-3.246,5.138-3.612,6.405
			c-2.296,2.99-3.697-3.603-3.883-4.423c-2.646-11.85,0.732-24.158,6.38-34.589c0.486-0.904-0.687-0.722-1.09-0.282
			c-1.814,1.977-8.577,8.216-5.618,0.926c1.044-2.562,2.148-5.157,2.911-7.836c1.37-2.201,2.431-4.337,3.384-6.796
			c0.62-1.603,0.764-8.886,1.638-3.989c0.434,2.423,3.101,4.028,5.249,2.396c4.564-3.469,6.095-7.478,7.247-13.074
			c1.385-6.745-1.703-9.895-4.875-14.645c5.121-0.539,9.801-1.245,13.394-5.957c3.653-4.782,6.416-11.094,5.08-17.288
			c-1.976-9.146-10.357-15.93-19.228-16.502c0.735-0.188,1.475-0.378,2.213-0.523c7.258-1.456,13.812,1.375,19.683,5.242
			c4.272,3.168,8.068,6.724,11.835,10.664c0.262,0.318,0.505,0.657,0.758,0.976c3.323,3.2,6.572,6.483,10.064,9.463
			c4.902,4.178,10.072,7.956,15.705,10.83c3.37,1.05,6.75,1.77,9.92,2.158c17.285,2.135,36.66-1.618,53.24-6.161
			c14.568-3.988,22.266-19.632,30.702-31.018c1.213-1.598,2.452-3.175,3.715-4.731c0.627-0.759,1.261-1.516,1.893-2.276
			c0.475-0.892,1.079-1.476,1.791-1.795c0.98-1.265,2.182-2.303,3.599-2.764c2.222-0.729,3.476,1.915,3.428,3.667
			c-0.117,4.25-1.457,8.45-3.086,12.532c-0.137,0.575-0.272,1.144-0.41,1.71c-0.38,1.58-0.845,3.132-1.358,4.666
			c-1.31,5.585-2.644,11.168-3.915,16.765c1.037-2.31,2.133-4.69,3.266-7.167c0.802-1.368,1.59-2.704,2.243-3.973
			c0.058-0.108,4.84-7.858,5.206-3.762c0.238,2.662-0.105,5.487-0.005,8.164c0.149,4.106-0.091,8.171-0.653,12.177
			c-0.081,5.001-0.302,9.995-0.813,14.96c1.862-4.953,3.305-10.041,4.168-15.224c0.657,3.047,1.396,6.054,2.315,9.056
			c2.577,8.421,4.566,16.702,5.449,25.491c1.375,13.713,1.926,31.403-7.482,42.595C234.263,144.872,235.208,145.303,235.879,144.739
			z"/>
		<path style="opacity:0.4;fill:#BEC0C2;" d="M235.879,144.739c-0.671,0.564-1.616,0.133-0.932-0.686
			c9.407-11.191,8.857-28.882,7.482-42.595c-0.883-8.789-2.872-17.07-5.449-25.491c-0.92-3.002-1.658-6.009-2.315-9.056
			c-0.863,5.183-2.306,10.271-4.168,15.224c0.511-4.965,0.732-9.959,0.813-14.96c0.563-4.006,0.803-8.07,0.653-12.177
			c-0.101-2.677,0.243-5.502,0.005-8.164c-0.366-4.097-5.148,3.653-5.206,3.762c-0.653,1.269-1.441,2.604-2.243,3.973
			c-1.133,2.477-2.229,4.857-3.266,7.167c1.271-5.597,2.605-11.18,3.915-16.765c0.514-1.534,0.979-3.086,1.358-4.666
			c0.138-0.566,0.273-1.135,0.41-1.71c1.629-4.082,2.969-8.282,3.086-12.532c0.048-1.752-1.206-4.396-3.428-3.667
			c-1.417,0.461-2.618,1.499-3.599,2.764c-0.712,0.318-1.316,0.903-1.791,1.795c-0.632,0.761-1.266,1.518-1.893,2.276
			c-1.263,1.557-2.502,3.134-3.715,4.731c-8.436,11.386-16.134,27.029-30.702,31.018c-16.58,4.543-35.955,8.296-53.24,6.161
			c-3.17-0.389-6.55-1.108-9.92-2.158c-5.633-2.874-10.803-6.652-15.705-10.83c-3.492-2.979-6.741-6.263-10.064-9.463
			c-0.253-0.318-0.496-0.657-0.758-0.976c-3.767-3.94-7.563-7.496-11.835-10.664c-5.871-3.867-12.425-6.698-19.683-5.242
			c-0.738,0.146-1.477,0.335-2.213,0.523c8.87,0.572,17.252,7.355,19.228,16.502c1.336,6.194-1.427,12.506-5.08,17.288
			c-3.593,4.712-8.272,5.418-13.394,5.957c3.172,4.75,6.26,7.899,4.875,14.645c-1.152,5.597-2.683,9.605-7.247,13.074
			c-2.148,1.632-4.815,0.026-5.249-2.396c-0.874-4.896-1.018,2.387-1.638,3.989c-0.953,2.459-2.014,4.595-3.384,6.796
			c-0.763,2.679-1.867,5.274-2.911,7.836c-2.959,7.29,3.804,1.051,5.618-0.926c0.403-0.439,1.576-0.622,1.09,0.282
			c-5.647,10.431-9.025,22.738-6.38,34.589c0.186,0.82,1.587,7.413,3.883,4.423c0.366-1.268,2.477-6.302,3.612-6.405
			c0.134-1.259,0.295-2.322,0.426-3.04c0.059-0.325,0.903-0.729,0.849-0.235c-0.139,1.197-0.336,2.699-0.66,4.257
			c0.039,0.218,0.065,0.455,0.081,0.751c0.183,3.518,0.653,6.551,2.061,9.741c1.828,4.139,2.237-4.726,2.243-5.4
			c0.006-0.696,1.737-1.925,1.887-0.947c1.204,7.773,5.198,17.867,12.911,21.447c10.155,4.712,7.167-11.679,6.673-16.127
			c-0.039-0.348,0.679-0.952,0.966-0.595c1.601,1.991,1.781,4.818,2.995,7.033c2.1,3.84,3.946-8.48,3.843-7.823
			c0.453-2.829,0.822-5.65,1.131-8.496c0.06-0.56,1.337-1.392,1.343-0.523c0.023,2.66,0.118,18.767-4.279,19.951
			c-2.018,0.542-3.325-1.792-4.055-3.993c0.112,0.735,0.235,1.597,0.372,2.618c0.422,3.192,0.429,6.421-0.785,8.63
			c0.216,0.054,0.427,0.116,0.645,0.171c-0.401,0.416-0.254,1.008,0.182,1.32c10.46,7.585,22.576,11.93,34.899,15.454
			c3.912,1.119,7.879,2.098,11.871,2.92c0.189,0.039,0.38,0.071,0.568,0.11c1.436,0.29,2.871,0.557,4.311,0.791
			c0.837,0.145,1.68,0.276,2.516,0.399c0.292,0.039,0.573,0.098,0.863,0.133c0.535,0.073,1.055,0.123,1.579,0.179
			c0.799,0.098,1.593,0.225,2.388,0.31c-0.048-0.035-0.094-0.065-0.138-0.098c2.333,0.176,7.136,0.396,7.263,0.511
			c5.017,0.07,10.044-0.325,15.058-1.376c5.964-1.258,11.736-2.959,17.333-5.065c6.097-1.456,11.699-4.422,17.08-7.677
			c4.442-2.686,22.384-15.938,22.999-16.43c3.624-3.265,6.524-7.602,9.549-11.283c3.231-4.347,5.844-9.143,7.729-14.279
			C238.209,142.538,237.119,143.689,235.879,144.739z M212.567,89.598c-0.436,0.726-1.588,0.422-1.59-0.43
			c-0.002-2.041-0.05-4.077-0.133-6.108c-0.809,0.985-1.877,1.615-3.402,1.202c-5.703-1.535-10.688-2.779-16.724-2.285
			c-6.352,0.521-12.627,1.769-18.955,2.359c-0.526,0.05-1.052,0.069-1.578,0.099c-5.646,1.206-11.414-0.195-16.971,0.965
			c-1.122,0.235-2.232,0.521-3.346,0.791c17.581,2.468,37.766,7.501,46.216,23.863c0.191,0.37,0.138,0.972-0.307,1.16
			c-3.485,1.519-7.257,2.168-11.076,2.236c3.619,0.901,7.219,1.863,10.691,3.243c2.591,1.033,15.131,7.37,11.814,11.899
			c-1.579,2.155-4.41,2.543-6.896,2.984c-4.847,0.855-9.754,1.46-14.684,1.627c-4.005,0.133-7.77-0.023-11.646-0.722
			c3.501,0.994,7.02,1.938,10.508,3.036c4.056,1.271,9.07,1.838,12.574,4.421c9.046,6.677-6.734,12.402-11.814,13.346
			c-17.342,3.219-36.783,0.389-50.01-11.311c1.002,1.713,1.916,3.469,2.64,5.309c1.42,3.626,0.03,6.888-4.354,5.148
			c-2.439-0.967-4.633-3.187-6.326-5.121c-2.565-2.926-5.381-5.524-7.524-8.812c-2.195-3.368-4.246-7.102-5.284-11.026
			c-0.918-3.482-1.281-7.084-2.047-10.593c-0.536,7.157,1.568,14.235,1.733,21.45c0.016,0.705-0.968,1.176-1.455,0.601
			c-5.565-6.554-9.404-14.972-12.061-23.107c-1.006-3.079-1.847-6.197-2.709-9.319c-0.434-0.312-0.867-0.628-1.306-0.946
			c0.143,4.133-0.153,8.279-0.621,12.171c-1.028,8.544-1.117,19.905-7.673,26.321c-0.4,0.393-1.044,0.296-1.337-0.173
			c-1.088-1.717-1.707-3.57-2.104-5.476c-0.102,5.225-0.982,10.329-3.81,14.85c-0.264,0.425-0.992,0.627-1.341,0.175
			c-2.113-2.711-3.4-5.861-4.282-9.201c-0.01,1.814,0.005,3.633,0.085,5.439c0.144,3.197,1.345,13.406-3.325,14.646
			c-5.189,1.372-8.501-7.924-9.818-11.511c-2.084-5.684-2.935-11.494-2.847-17.338c-0.719,1.12-1.469,2.209-2.29,3.236
			c-0.87,1.089-5.082,6.039-6.558,2.585c-1.856-4.327-0.625-10.021,0.918-14.605c0.432-3.298,1.937-6.857,2.831-9.348
			c1.805-5.024,3.714-10.646,6.966-14.947c0.353-0.468,1.153-0.627,1.471,0c1.227,2.432,4.482,8.058,6.67,3.202
			c0.972-2.162,1.655-4.416,2.285-6.691c1.648-5.927,3.275-13.119,0.781-19.011c-0.321-0.648-0.626-1.299-0.976-1.932
			c-0.537-0.963,0.892-1.789,1.47-0.858c0.417,0.669,0.754,1.368,1.059,2.088c3.003,5.972,4.817,12.322,5.328,18.853
			c2.298-5.772,2.523-12.697,2.61-18.593c0.093-6.306-0.919-12.795-0.28-19.064c1-9.805,8.415-6.485,14.469-1.83
			c0.268-0.088,0.572-0.065,0.835,0.185c12.604,12.015,29.453,16.424,46.328,18.349c1.457,0.166,3.079,0.208,4.78,0.212
			c6.654-1.236,13.498-0.748,20.125-2.563c7.718-2.11,15.808-4.776,22.691-8.931c6.677-4.033,12.108-9.424,16.324-15.982
			c3.347-5.212,6.334-10.635,10.168-15.523c0.418-0.536,1.252-0.175,1.421,0.378c4.308,13.855-5.98,26.757-9.43,39.799
			c4.478-3.396,7.048-8.805,11.874-11.89c0.572-0.373,1.249,0.119,1.282,0.736C223.161,73.197,217.422,81.479,212.567,89.598z"/>
		<path style="opacity:0.4;fill:#C17D45;" d="M81.014,161.25c-0.585,4.826-2.105,9.579-6.133,11.352
			c-1.11,0.488-2.164,0.576-3.172,0.413c0.813,0.595,1.675,1.121,2.588,1.544c8.211,3.808,7.83-6.171,7.122-12.485
			C81.282,161.8,81.142,161.527,81.014,161.25z"/>
		<path style="opacity:0.4;fill:#BEC0C2;" d="M235.879,144.739c-0.671,0.564-1.616,0.133-0.932-0.686
			c9.407-11.191,8.857-28.882,7.482-42.595c-0.859-8.551-2.77-16.619-5.245-24.805c0.899,12.579,1.605,25.095-0.563,37.706
			c-1.16,6.764-2.559,13.677-5.994,19.712c-2.829,4.965-6.512,9.296-10.188,13.631c4.465-2.593,8.383-6.188,11.814-9.979
			c0.701-0.771,1.71,0.207,1.341,1.037c-7.005,15.652-19.707,26.831-34.592,34.862c-14.94,8.057-30.904,13.727-47.957,14.783
			c-15.447,0.957-31.543-1.231-45.97-7.016c-7.933-3.174-15.332-7.668-20.39-14.153c-0.317-0.326-0.607-0.718-0.861-1.164
			c-0.256-0.368-0.521-0.726-0.763-1.102c0.07,0.497,0.142,1.029,0.224,1.632c0.422,3.192,0.429,6.421-0.785,8.63
			c0.216,0.054,0.427,0.116,0.645,0.171c-0.401,0.416-0.254,1.008,0.182,1.32c10.46,7.585,22.576,11.93,34.899,15.454
			c3.912,1.119,7.879,2.098,11.871,2.92c0.189,0.039,0.38,0.071,0.568,0.11c1.436,0.29,2.871,0.557,4.311,0.791
			c0.837,0.145,1.68,0.276,2.516,0.399c0.292,0.039,0.573,0.098,0.863,0.133c0.535,0.073,1.055,0.123,1.579,0.179
			c0.799,0.098,1.593,0.225,2.388,0.31c-0.048-0.035-0.094-0.065-0.138-0.098c2.333,0.176,7.136,0.396,7.263,0.511
			c5.017,0.07,10.044-0.325,15.058-1.376c5.964-1.258,11.736-2.959,17.333-5.065c6.097-1.456,11.699-4.422,17.08-7.677
			c4.442-2.686,22.384-15.938,22.999-16.43c3.624-3.265,6.524-7.602,9.549-11.283c3.231-4.347,5.844-9.143,7.729-14.279
			C238.209,142.538,237.119,143.689,235.879,144.739z"/>
		<path style="fill:#5E2C00;" d="M213.219,116.346c4.372,0.168,8.446-0.524,10.757-3.584c2.706-3.583-2.675-7.714-5.004-9.433
			c-6.979-5.141-13.525-8.431-21.063-10.866c1.294,0.077,2.586,0.217,3.865,0.517c1.988,0.472,3.717,0.342,4.946-1.298
			c0.315-0.426,0.539-0.927,0.23-1.414c-0.028-0.042-0.067-0.077-0.094-0.124c-8.879-4.397-17.766-5.286-27.755-5.582
			c-5.153-0.153-10.918-0.689-15.994,0.438c-0.568,0.127-1.122,0.284-1.672,0.449c8.7-0.188,17.107-0.438,25.909,1.337
			c5.026,1.009,10.515,3.544,15.668,3.925c-4.363-0.321-9.669,0.233-13.958-0.643c-0.264-0.061-0.605,0.133-0.874,0.409
			c1.609,0.88,3.238,1.719,4.905,2.479c5.689,1.606,11.197,3.782,16.242,6.916c1.964,1.22,17.5,11.879,9.797,13.341
			c-2.424,0.459-4.881,0.424-7.349,0.188c-2.546,0.267-5.095,0.523-7.642,0.769c1.496,1.17,3.051,2.246,4.646,3.261
			c3.838,1.95,7.596,4.038,11.647,5.603c3.118,1.2,6.987,3.716,3.845,6.933c-3.825,3.91-11.066,4.552-16.122,5.585
			c-0.314,0.065-0.648,0.133-0.978,0.206c3.32,0.317,6.846,0.62,9.394,2.409c0.453,0.321,0.772,0.698,1.02,1.096
			c1.037,1.023,0.839,2.451,0.121,3.953c-1.158,3.193-4.462,6.605-6.066,7.843c-0.428,0.331-0.864,0.63-1.303,0.941
			c-3.059,2.501-6.623,4.439-10.365,5.978c-0.037,0.017-0.068,0.026-0.104,0.04c-0.474,0.194-0.944,0.392-1.425,0.575
			c-5.488,2.208-11.261,3.498-17.143,3.937c-12.882,1.243-25.566,1.327-37.033-4.708c1.533,2.295,3.352,4.403,4.501,6.93
			c0.24,0.53,0.039,1.049-0.508,1.255c-5.37,1.987-12.171-4.393-15.963-7.438c-5.821-4.671-11.593-10.563-14.814-17.476
			c0.086,0.794,0.157,1.591,0.199,2.39c0.006,0.081,0.396,7.567-0.624,6.747c-1.806-1.431-3.268-3.678-4.458-5.625
			c-1.934-3.164-3.021-6.288-3.72-9.427c-0.976-2.861-1.852-5.79-2.527-8.756c-0.061,1.96,0.165,4.105,0.283,5.111
			c0.4,3.408,1.187,6.851,2.449,10.054c2.009,5.105,4.881,9.29,9.186,12.378c0.652-0.263,1.257-0.734,1.753-1.355
			c0.722-0.892,1.092-2.104,1.237-3.485c5.059,8.802,13.396,15.682,23.142,19.069c2.387,0.829,5.872,0.641,6.933-2.116
			c0.644-1.671-0.025-2.906-0.897-4.289c8.122,4.452,18.15,5.326,27.592,3.655c5.076-0.335,10.148-1.246,14.771-2.638
			c9.792-2.952,31.011-12.732,29.164-26.099c-0.063-0.192-0.186-0.329-0.364-0.421c-0.543-0.152-1.096-0.275-1.646-0.419
			c3.369-1.005,6.747-2.712,8.338-5.639C231.045,125.176,221.886,119.918,213.219,116.346z"/>
		<g>
			<path style="fill:#5E2C00;" d="M64.725,53.126c0,3.836-2.325,6.945-5.192,6.945c-2.87,0-5.197-3.109-5.197-6.945
				c0-3.827,2.327-6.939,5.197-6.939C62.4,46.187,64.725,49.299,64.725,53.126z"/>
		</g>
		<g>
			<path style="fill:#FFFFFF;" d="M59.516,50.428c0,1.163-0.712,2.109-1.576,2.109c-0.875,0-1.582-0.946-1.582-2.109
				c0-1.165,0.707-2.11,1.582-2.11C58.804,48.317,59.516,49.263,59.516,50.428z"/>
		</g>
	</g>
</g>
</svg>
